<svg width="554" height="564" viewBox="0 0 554 564" fill="none" xmlns="http://www.w3.org/2000/svg">
<path d="M49.8532 172.771C49.1751 172.61 48.416 172.374 47.5758 172.063C46.7356 171.751 44.113 170.689 39.708 168.876L38.272 171.194C37.7119 170.987 37.1924 170.602 36.7137 170.04L39.9883 163.448L41.0813 163.752C40.9647 164.749 40.7776 165.698 40.52 166.598C45.8981 168.455 48.9109 169.447 49.5585 169.574C50.1966 169.719 50.7631 169.771 51.2581 169.728C51.7732 169.693 52.2103 169.504 52.5697 169.162C52.9291 168.82 53.3128 168.239 53.721 167.417C54.1196 166.615 54.3264 165.436 54.3412 163.88C49.8372 162.076 46.4544 160.732 44.1929 159.848L42.7569 162.167C42.1968 161.959 41.6773 161.574 41.1986 161.012L44.4732 154.421L45.5662 154.724C45.4496 155.722 45.2625 156.67 45.0049 157.57C46.4547 158.085 48.5089 158.79 51.1674 159.684C53.8459 160.586 55.6 161.18 56.4297 161.464C57.0117 160.436 57.5494 159.64 58.0427 159.076L59.546 159.769C59.3335 160.912 58.7385 162.467 57.7608 164.435C57.1278 164.517 56.5223 164.496 55.9442 164.372C55.9866 165.384 55.9738 166.363 55.9058 167.31C55.8577 168.265 55.7814 168.848 55.677 169.058C54.6234 171.179 53.2077 172.407 51.4298 172.744C51.4932 173.808 51.5025 174.886 51.4575 175.978C51.423 177.096 51.3582 177.751 51.2633 177.942C50.3996 179.681 49.304 180.813 47.9767 181.339C46.6599 181.892 44.9913 181.794 42.9709 181.045C42.3707 180.823 39.7882 179.776 35.2231 177.903L33.7871 180.221C33.227 180.014 32.7075 179.629 32.2288 179.067L35.5035 172.476L36.5964 172.779C36.4798 173.776 36.2927 174.725 36.0351 175.625C39.2338 176.72 41.6575 177.539 43.3063 178.082C44.9551 178.625 46.1845 178.82 46.9945 178.668C47.8244 178.523 48.5242 177.877 49.0937 176.731C49.6632 175.585 49.9164 174.265 49.8532 172.771Z" fill="#3A7146"/>
<path d="M49.8532 172.771C49.1751 172.61 48.416 172.374 47.5758 172.063C46.7356 171.751 44.113 170.689 39.708 168.876L38.272 171.194C37.7119 170.987 37.1924 170.602 36.7137 170.04L39.9883 163.448L41.0813 163.752C40.9647 164.749 40.7776 165.698 40.52 166.598C45.8981 168.455 48.9109 169.447 49.5585 169.574C50.1966 169.719 50.7631 169.771 51.2581 169.728C51.7732 169.693 52.2103 169.504 52.5697 169.162C52.9291 168.82 53.3128 168.239 53.721 167.417C54.1196 166.615 54.3264 165.436 54.3412 163.88C49.8372 162.076 46.4544 160.732 44.1929 159.848L42.7569 162.167C42.1968 161.959 41.6773 161.574 41.1986 161.012L44.4732 154.421L45.5662 154.724C45.4496 155.722 45.2625 156.67 45.0049 157.57C46.4547 158.085 48.5089 158.79 51.1674 159.684C53.8459 160.586 55.6 161.18 56.4297 161.464C57.0117 160.436 57.5494 159.64 58.0427 159.076L59.546 159.769C59.3335 160.912 58.7385 162.467 57.7608 164.435C57.1278 164.517 56.5223 164.496 55.9442 164.372C55.9866 165.384 55.9738 166.363 55.9058 167.31C55.8577 168.265 55.7814 168.848 55.677 169.058C54.6234 171.179 53.2077 172.407 51.4298 172.744C51.4932 173.808 51.5025 174.886 51.4575 175.978C51.423 177.096 51.3582 177.751 51.2633 177.942C50.3996 179.681 49.304 180.813 47.9767 181.339C46.6599 181.892 44.9913 181.794 42.9709 181.045C42.3707 180.823 39.7882 179.776 35.2231 177.903L33.7871 180.221C33.227 180.014 32.7075 179.629 32.2288 179.067L35.5035 172.476L36.5964 172.779C36.4798 173.776 36.2927 174.725 36.0351 175.625C39.2338 176.72 41.6575 177.539 43.3063 178.082C44.9551 178.625 46.1845 178.82 46.9945 178.668C47.8244 178.523 48.5242 177.877 49.0937 176.731C49.6632 175.585 49.9164 174.265 49.8532 172.771Z" fill="#3A7146"/>
<path d="M49.8532 172.771C49.1751 172.61 48.416 172.374 47.5758 172.063C46.7356 171.751 44.113 170.689 39.708 168.876L38.272 171.194C37.7119 170.987 37.1924 170.602 36.7137 170.04L39.9883 163.448L41.0813 163.752C40.9647 164.749 40.7776 165.698 40.52 166.598C45.8981 168.455 48.9109 169.447 49.5585 169.574C50.1966 169.719 50.7631 169.771 51.2581 169.728C51.7732 169.693 52.2103 169.504 52.5697 169.162C52.9291 168.82 53.3128 168.239 53.721 167.417C54.1196 166.615 54.3264 165.436 54.3412 163.88C49.8372 162.076 46.4544 160.732 44.1929 159.848L42.7569 162.167C42.1968 161.959 41.6773 161.574 41.1986 161.012L44.4732 154.421L45.5662 154.724C45.4496 155.722 45.2625 156.67 45.0049 157.57C46.4547 158.085 48.5089 158.79 51.1674 159.684C53.8459 160.586 55.6 161.18 56.4297 161.464C57.0117 160.436 57.5494 159.64 58.0427 159.076L59.546 159.769C59.3335 160.912 58.7385 162.467 57.7608 164.435C57.1278 164.517 56.5223 164.496 55.9442 164.372C55.9866 165.384 55.9738 166.363 55.9058 167.31C55.8577 168.265 55.7814 168.848 55.677 169.058C54.6234 171.179 53.2077 172.407 51.4298 172.744C51.4932 173.808 51.5025 174.886 51.4575 175.978C51.423 177.096 51.3582 177.751 51.2633 177.942C50.3996 179.681 49.304 180.813 47.9767 181.339C46.6599 181.892 44.9913 181.794 42.9709 181.045C42.3707 180.823 39.7882 179.776 35.2231 177.903L33.7871 180.221C33.227 180.014 32.7075 179.629 32.2288 179.067L35.5035 172.476L36.5964 172.779C36.4798 173.776 36.2927 174.725 36.0351 175.625C39.2338 176.72 41.6575 177.539 43.3063 178.082C44.9551 178.625 46.1845 178.82 46.9945 178.668C47.8244 178.523 48.5242 177.877 49.0937 176.731C49.6632 175.585 49.9164 174.265 49.8532 172.771Z" fill="#3A7146"/>
<path d="M15.3914 204.891C15.1491 205.664 15.6705 206.599 16.9556 207.694C18.2343 208.81 19.2726 209.518 20.0706 209.818L20.3002 209.085L35.5046 207.537L36.5569 205.031C37.1378 205.17 37.706 205.492 38.2616 205.997L36.062 213.021L34.9441 212.852C34.8577 212.131 34.8558 211.354 34.9384 210.52L25.6103 211.144L22.6516 211.191L22.556 211.496L32.6433 217.849L34.1312 215.448L35.1918 215.8L33.0401 222.671C32.2678 222.858 31.5911 222.882 31.0102 222.743C31.1679 221.884 31.3566 221.032 31.5765 220.187C30.1655 219.28 28.0593 217.923 25.2579 216.115C22.4502 214.327 20.2809 212.921 18.7501 211.898C17.2129 210.896 15.9974 209.971 15.1034 209.122C14.2094 208.273 13.6785 207.512 13.5106 206.837C13.3157 206.178 13.3298 205.492 13.5529 204.779C13.9482 203.517 14.567 202.396 15.4092 201.415L15.8614 200.933C18.182 201.641 19.4501 202.043 19.6655 202.138C19.6768 202.316 19.523 202.914 19.2042 203.932L15.7047 204.211C15.5851 204.379 15.4806 204.606 15.3914 204.891Z" fill="#3A7146"/>
<path d="M15.3914 204.891C15.1491 205.664 15.6705 206.599 16.9556 207.694C18.2343 208.81 19.2726 209.518 20.0706 209.818L20.3002 209.085L35.5046 207.537L36.5569 205.031C37.1378 205.17 37.706 205.492 38.2616 205.997L36.062 213.021L34.9441 212.852C34.8577 212.131 34.8558 211.354 34.9384 210.52L25.6103 211.144L22.6516 211.191L22.556 211.496L32.6433 217.849L34.1312 215.448L35.1918 215.8L33.0401 222.671C32.2678 222.858 31.5911 222.882 31.0102 222.743C31.1679 221.884 31.3566 221.032 31.5765 220.187C30.1655 219.28 28.0593 217.923 25.2579 216.115C22.4502 214.327 20.2809 212.921 18.7501 211.898C17.2129 210.896 15.9974 209.971 15.1034 209.122C14.2094 208.273 13.6785 207.512 13.5106 206.837C13.3157 206.178 13.3298 205.492 13.5529 204.779C13.9482 203.517 14.567 202.396 15.4092 201.415L15.8614 200.933C18.182 201.641 19.4501 202.043 19.6655 202.138C19.6768 202.316 19.523 202.914 19.2042 203.932L15.7047 204.211C15.5851 204.379 15.4806 204.606 15.3914 204.891Z" fill="#3A7146"/>
<path d="M15.3914 204.891C15.1491 205.664 15.6705 206.599 16.9556 207.694C18.2343 208.81 19.2726 209.518 20.0706 209.818L20.3002 209.085L35.5046 207.537L36.5569 205.031C37.1378 205.17 37.706 205.492 38.2616 205.997L36.062 213.021L34.9441 212.852C34.8577 212.131 34.8558 211.354 34.9384 210.52L25.6103 211.144L22.6516 211.191L22.556 211.496L32.6433 217.849L34.1312 215.448L35.1918 215.8L33.0401 222.671C32.2678 222.858 31.5911 222.882 31.0102 222.743C31.1679 221.884 31.3566 221.032 31.5765 220.187C30.1655 219.28 28.0593 217.923 25.2579 216.115C22.4502 214.327 20.2809 212.921 18.7501 211.898C17.2129 210.896 15.9974 209.971 15.1034 209.122C14.2094 208.273 13.6785 207.512 13.5106 206.837C13.3157 206.178 13.3298 205.492 13.5529 204.779C13.9482 203.517 14.567 202.396 15.4092 201.415L15.8614 200.933C18.182 201.641 19.4501 202.043 19.6655 202.138C19.6768 202.316 19.523 202.914 19.2042 203.932L15.7047 204.211C15.5851 204.379 15.4806 204.606 15.3914 204.891Z" fill="#3A7146"/>
<path d="M9.82646 261.787L3.01685 261.064L2.52993 263.817C1.93463 263.768 1.31397 263.535 0.667969 263.118L1.3711 255.727L2.49639 255.724C2.72237 256.727 2.87594 257.703 2.95713 258.651C11.6437 259.24 18.1065 259.667 22.3455 259.931C22.4577 258.978 22.6742 258.054 22.9949 257.16L24.6412 257.424C24.8429 258.682 24.8387 260.416 24.6286 262.624C24.2702 262.787 23.6258 262.916 22.6954 263.01C23.8188 265.843 24.3461 267.62 24.2774 268.342C24.0895 270.317 23.1741 271.719 21.5311 272.546C19.9094 273.376 17.8654 273.688 15.3991 273.485C12.9541 273.283 10.954 272.572 9.39864 271.352C7.84131 270.153 7.15963 268.534 7.3536 266.495C7.42634 265.731 7.69749 264.908 8.16707 264.026C8.63463 263.166 9.18776 262.419 9.82646 261.787ZM21.9401 267.571C22.0654 266.255 21.7431 264.687 20.9733 262.868C17.0228 262.499 14.061 262.212 12.0877 262.006C11.5057 262.493 10.95 263.154 10.4207 263.987C9.91061 264.844 9.62425 265.602 9.56161 266.26C9.3232 268.766 11.2663 270.19 15.3909 270.53C16.9642 270.66 18.2145 270.581 19.1419 270.294C20.0904 270.009 20.7783 269.648 21.2054 269.212C21.6326 268.777 21.8775 268.23 21.9401 267.571Z" fill="#3A7146"/>
<path d="M9.82646 261.787L3.01685 261.064L2.52993 263.817C1.93463 263.768 1.31397 263.535 0.667969 263.118L1.3711 255.727L2.49639 255.724C2.72237 256.727 2.87594 257.703 2.95713 258.651C11.6437 259.24 18.1065 259.667 22.3455 259.931C22.4577 258.978 22.6742 258.054 22.9949 257.16L24.6412 257.424C24.8429 258.682 24.8387 260.416 24.6286 262.624C24.2702 262.787 23.6258 262.916 22.6954 263.01C23.8188 265.843 24.3461 267.62 24.2774 268.342C24.0895 270.317 23.1741 271.719 21.5311 272.546C19.9094 273.376 17.8654 273.688 15.3991 273.485C12.9541 273.283 10.954 272.572 9.39864 271.352C7.84131 270.153 7.15963 268.534 7.3536 266.495C7.42634 265.731 7.69749 264.908 8.16707 264.026C8.63463 263.166 9.18776 262.419 9.82646 261.787ZM21.9401 267.571C22.0654 266.255 21.7431 264.687 20.9733 262.868C17.0228 262.499 14.061 262.212 12.0877 262.006C11.5057 262.493 10.95 263.154 10.4207 263.987C9.91061 264.844 9.62425 265.602 9.56161 266.26C9.3232 268.766 11.2663 270.19 15.3909 270.53C16.9642 270.66 18.2145 270.581 19.1419 270.294C20.0904 270.009 20.7783 269.648 21.2054 269.212C21.6326 268.777 21.8775 268.23 21.9401 267.571Z" fill="#3A7146"/>
<path d="M9.82646 261.787L3.01685 261.064L2.52993 263.817C1.93463 263.768 1.31397 263.535 0.667969 263.118L1.3711 255.727L2.49639 255.724C2.72237 256.727 2.87594 257.703 2.95713 258.651C11.6437 259.24 18.1065 259.667 22.3455 259.931C22.4577 258.978 22.6742 258.054 22.9949 257.16L24.6412 257.424C24.8429 258.682 24.8387 260.416 24.6286 262.624C24.2702 262.787 23.6258 262.916 22.6954 263.01C23.8188 265.843 24.3461 267.62 24.2774 268.342C24.0895 270.317 23.1741 271.719 21.5311 272.546C19.9094 273.376 17.8654 273.688 15.3991 273.485C12.9541 273.283 10.954 272.572 9.39864 271.352C7.84131 270.153 7.15963 268.534 7.3536 266.495C7.42634 265.731 7.69749 264.908 8.16707 264.026C8.63463 263.166 9.18776 262.419 9.82646 261.787ZM21.9401 267.571C22.0654 266.255 21.7431 264.687 20.9733 262.868C17.0228 262.499 14.061 262.212 12.0877 262.006C11.5057 262.493 10.95 263.154 10.4207 263.987C9.91061 264.844 9.62425 265.602 9.56161 266.26C9.3232 268.766 11.2663 270.19 15.3909 270.53C16.9642 270.66 18.2145 270.581 19.1419 270.294C20.0904 270.009 20.7783 269.648 21.2054 269.212C21.6326 268.777 21.8775 268.23 21.9401 267.571Z" fill="#3A7146"/>
<path d="M29.734 296.25C29.762 296.911 29.7605 297.38 29.7296 297.658C29.3457 297.665 28.8417 297.609 28.2177 297.492C27.6159 297.395 27.2608 297.326 27.1524 297.285C26.6831 297.293 25.7117 297.288 24.2381 297.27C22.7645 297.252 21.6224 297.25 20.8118 297.264C21.3413 298.172 21.8063 299.071 22.2068 299.96C22.6083 300.87 22.814 301.443 22.8239 301.677C22.9106 303.723 22.4615 305.213 21.4764 306.147C20.5127 307.08 18.9964 307.564 16.9273 307.599C16.3301 307.609 13.5535 307.57 8.59767 307.482L8.45551 310.172C7.85826 310.182 7.21067 310.012 6.51275 309.661L6.20113 302.307L7.31691 302.193C7.69974 303.167 7.99635 304.122 8.20674 305.057C13.7899 304.836 16.8885 304.667 17.5025 304.55C18.1388 304.454 18.6871 304.295 19.1473 304.074C19.6076 303.853 19.9246 303.528 20.0985 303.098C20.2725 302.669 20.3445 302.103 20.3147 301.399C20.2533 299.95 19.8533 298.57 19.1147 297.26L8.16411 297.251L8.02196 299.941C7.42471 299.951 6.77712 299.781 6.07919 299.43L5.76757 292.077L6.88335 291.962C7.26619 292.937 7.5628 293.891 7.77318 294.826L27.1142 294.119C27.1285 292.945 27.2168 292.005 27.3789 291.299L29.0481 291.399C29.4141 292.48 29.6428 294.098 29.734 296.25Z" fill="#3A7146"/>
<path d="M29.734 296.25C29.762 296.911 29.7605 297.38 29.7296 297.658C29.3457 297.665 28.8417 297.609 28.2177 297.492C27.6159 297.395 27.2608 297.326 27.1524 297.285C26.6831 297.293 25.7117 297.288 24.2381 297.27C22.7645 297.252 21.6224 297.25 20.8118 297.264C21.3413 298.172 21.8063 299.071 22.2068 299.96C22.6083 300.87 22.814 301.443 22.8239 301.677C22.9106 303.723 22.4615 305.213 21.4764 306.147C20.5127 307.08 18.9964 307.564 16.9273 307.599C16.3301 307.609 13.5535 307.57 8.59767 307.482L8.45551 310.172C7.85826 310.182 7.21067 310.012 6.51275 309.661L6.20113 302.307L7.31691 302.193C7.69974 303.167 7.99635 304.122 8.20674 305.057C13.7899 304.836 16.8885 304.667 17.5025 304.55C18.1388 304.454 18.6871 304.295 19.1473 304.074C19.6076 303.853 19.9246 303.528 20.0985 303.098C20.2725 302.669 20.3445 302.103 20.3147 301.399C20.2533 299.95 19.8533 298.57 19.1147 297.26L8.16411 297.251L8.02196 299.941C7.42471 299.951 6.77712 299.781 6.07919 299.43L5.76757 292.077L6.88335 291.962C7.26619 292.937 7.5628 293.891 7.77318 294.826L27.1142 294.119C27.1285 292.945 27.2168 292.005 27.3789 291.299L29.0481 291.399C29.4141 292.48 29.6428 294.098 29.734 296.25Z" fill="#3A7146"/>
<path d="M29.734 296.25C29.762 296.911 29.7605 297.38 29.7296 297.658C29.3457 297.665 28.8417 297.609 28.2177 297.492C27.6159 297.395 27.2608 297.326 27.1524 297.285C26.6831 297.293 25.7117 297.288 24.2381 297.27C22.7645 297.252 21.6224 297.25 20.8118 297.264C21.3413 298.172 21.8063 299.071 22.2068 299.96C22.6083 300.87 22.814 301.443 22.8239 301.677C22.9106 303.723 22.4615 305.213 21.4764 306.147C20.5127 307.08 18.9964 307.564 16.9273 307.599C16.3301 307.609 13.5535 307.57 8.59767 307.482L8.45551 310.172C7.85826 310.182 7.21067 310.012 6.51275 309.661L6.20113 302.307L7.31691 302.193C7.69974 303.167 7.99635 304.122 8.20674 305.057C13.7899 304.836 16.8885 304.667 17.5025 304.55C18.1388 304.454 18.6871 304.295 19.1473 304.074C19.6076 303.853 19.9246 303.528 20.0985 303.098C20.2725 302.669 20.3445 302.103 20.3147 301.399C20.2533 299.95 19.8533 298.57 19.1147 297.26L8.16411 297.251L8.02196 299.941C7.42471 299.951 6.77712 299.781 6.07919 299.43L5.76757 292.077L6.88335 291.962C7.26619 292.937 7.5628 293.891 7.77318 294.826L27.1142 294.119C27.1285 292.945 27.2168 292.005 27.3789 291.299L29.0481 291.399C29.4141 292.48 29.6428 294.098 29.734 296.25Z" fill="#3A7146"/>
<path d="M10.678 336.533C10.9915 338.297 11.7534 339.421 12.9637 339.903C14.1989 340.404 15.8445 340.537 17.9003 340.301C21.1642 339.926 23.0825 338.977 23.6553 337.454C23.8899 336.826 23.912 335.977 23.7217 334.906C23.5351 333.856 23.1353 332.884 22.5223 331.99C20.741 331.337 18.7695 331.135 16.6077 331.383C14.5307 331.621 12.9791 332.078 11.9528 332.753C10.7932 333.53 10.3682 334.789 10.678 336.533ZM15.8066 328.517C18.4983 328.208 20.7047 328.576 22.4259 329.622C24.1684 330.665 25.2654 332.457 25.7169 334.998C26.1685 337.54 25.7956 339.458 24.5984 340.753C23.4223 342.046 21.4778 342.848 18.765 343.159C16.0522 343.471 13.8139 343.106 12.0503 342.066C10.2904 341.046 9.19215 339.307 8.7555 336.85C8.31886 334.392 8.71103 332.461 9.93204 331.056C11.1568 329.673 13.115 328.826 15.8066 328.517Z" fill="#3A7146"/>
<path d="M10.678 336.533C10.9915 338.297 11.7534 339.421 12.9637 339.903C14.1989 340.404 15.8445 340.537 17.9003 340.301C21.1642 339.926 23.0825 338.977 23.6553 337.454C23.8899 336.826 23.912 335.977 23.7217 334.906C23.5351 333.856 23.1353 332.884 22.5223 331.99C20.741 331.337 18.7695 331.135 16.6077 331.383C14.5307 331.621 12.9791 332.078 11.9528 332.753C10.7932 333.53 10.3682 334.789 10.678 336.533ZM15.8066 328.517C18.4983 328.208 20.7047 328.576 22.4259 329.622C24.1684 330.665 25.2654 332.457 25.7169 334.998C26.1685 337.54 25.7956 339.458 24.5984 340.753C23.4223 342.046 21.4778 342.848 18.765 343.159C16.0522 343.471 13.8139 343.106 12.0503 342.066C10.2904 341.046 9.19215 339.307 8.7555 336.85C8.31886 334.392 8.71103 332.461 9.93204 331.056C11.1568 329.673 13.115 328.826 15.8066 328.517Z" fill="#3A7146"/>
<path d="M10.678 336.533C10.9915 338.297 11.7534 339.421 12.9637 339.903C14.1989 340.404 15.8445 340.537 17.9003 340.301C21.1642 339.926 23.0825 338.977 23.6553 337.454C23.8899 336.826 23.912 335.977 23.7217 334.906C23.5351 333.856 23.1353 332.884 22.5223 331.99C20.741 331.337 18.7695 331.135 16.6077 331.383C14.5307 331.621 12.9791 332.078 11.9528 332.753C10.7932 333.53 10.3682 334.789 10.678 336.533ZM15.8066 328.517C18.4983 328.208 20.7047 328.576 22.4259 329.622C24.1684 330.665 25.2654 332.457 25.7169 334.998C26.1685 337.54 25.7956 339.458 24.5984 340.753C23.4223 342.046 21.4778 342.848 18.765 343.159C16.0522 343.471 13.8139 343.106 12.0503 342.066C10.2904 341.046 9.19215 339.307 8.7555 336.85C8.31886 334.392 8.71103 332.461 9.93204 331.056C11.1568 329.673 13.115 328.826 15.8066 328.517Z" fill="#3A7146"/>
<path d="M17.0682 365.425L28.8279 362.823L28.1339 360.459L29.2053 360.148C29.4119 360.324 29.8581 360.863 30.544 361.767L35.3001 363.484C35.3785 363.902 35.367 364.24 35.2657 364.499L31.8044 365.155C32.255 366.691 32.5199 367.97 32.5991 368.995C32.0342 369.107 31.3659 369.056 30.5942 368.841L29.6209 365.525C27.0982 365.984 23.2783 366.702 18.1611 367.677C18.4348 368.836 18.562 370.024 18.5428 371.241L17.4354 371.429C17.163 371.18 16.727 370.487 16.1274 369.349C15.5339 368.233 15.126 367.296 14.9037 366.538C15.041 366.403 15.3577 366.199 15.8536 365.927C16.3704 365.65 16.7753 365.483 17.0682 365.425Z" fill="#3A7146"/>
<path d="M17.0682 365.425L28.8279 362.823L28.1339 360.459L29.2053 360.148C29.4119 360.324 29.8581 360.863 30.544 361.767L35.3001 363.484C35.3785 363.902 35.367 364.24 35.2657 364.499L31.8044 365.155C32.255 366.691 32.5199 367.97 32.5991 368.995C32.0342 369.107 31.3659 369.056 30.5942 368.841L29.6209 365.525C27.0982 365.984 23.2783 366.702 18.1611 367.677C18.4348 368.836 18.562 370.024 18.5428 371.241L17.4354 371.429C17.163 371.18 16.727 370.487 16.1274 369.349C15.5339 368.233 15.126 367.296 14.9037 366.538C15.041 366.403 15.3577 366.199 15.8536 365.927C16.3704 365.65 16.7753 365.483 17.0682 365.425Z" fill="#3A7146"/>
<path d="M17.0682 365.425L28.8279 362.823L28.1339 360.459L29.2053 360.148C29.4119 360.324 29.8581 360.863 30.544 361.767L35.3001 363.484C35.3785 363.902 35.367 364.24 35.2657 364.499L31.8044 365.155C32.255 366.691 32.5199 367.97 32.5991 368.995C32.0342 369.107 31.3659 369.056 30.5942 368.841L29.6209 365.525C27.0982 365.984 23.2783 366.702 18.1611 367.677C18.4348 368.836 18.562 370.024 18.5428 371.241L17.4354 371.429C17.163 371.18 16.727 370.487 16.1274 369.349C15.5339 368.233 15.126 367.296 14.9037 366.538C15.041 366.403 15.3577 366.199 15.8536 365.927C16.3704 365.65 16.7753 365.483 17.0682 365.425Z" fill="#3A7146"/>
<path d="M25.8528 394.354C26.5391 396.009 27.5338 396.969 28.8369 397.234C30.1687 397.513 31.8289 397.366 33.8177 396.795C36.9751 395.887 38.6758 394.648 38.9198 393.078C39.0191 392.432 38.8604 391.606 38.4436 390.601C38.0351 389.616 37.4317 388.742 36.6335 387.979C34.7279 387.644 32.7295 387.778 30.6383 388.379C28.629 388.957 27.1873 389.658 26.3131 390.483C25.328 391.428 25.1746 392.718 25.8528 394.354ZM29.2339 385.739C31.8378 384.991 34.1045 384.979 36.0341 385.703C37.9842 386.421 39.4535 387.973 40.4422 390.358C41.4309 392.742 41.4692 394.661 40.5573 396.114C39.6658 397.561 37.9079 398.662 35.2836 399.417C32.6592 400.171 30.3617 400.192 28.3911 399.48C26.4287 398.787 24.9695 397.288 24.0135 394.982C23.0576 392.676 23.0356 390.742 23.9477 389.178C24.868 387.634 26.6301 386.488 29.2339 385.739Z" fill="#3A7146"/>
<path d="M25.8528 394.354C26.5391 396.009 27.5338 396.969 28.8369 397.234C30.1687 397.513 31.8289 397.366 33.8177 396.795C36.9751 395.887 38.6758 394.648 38.9198 393.078C39.0191 392.432 38.8604 391.606 38.4436 390.601C38.0351 389.616 37.4317 388.742 36.6335 387.979C34.7279 387.644 32.7295 387.778 30.6383 388.379C28.629 388.957 27.1873 389.658 26.3131 390.483C25.328 391.428 25.1746 392.718 25.8528 394.354ZM29.2339 385.739C31.8378 384.991 34.1045 384.979 36.0341 385.703C37.9842 386.421 39.4535 387.973 40.4422 390.358C41.4309 392.742 41.4692 394.661 40.5573 396.114C39.6658 397.561 37.9079 398.662 35.2836 399.417C32.6592 400.171 30.3617 400.192 28.3911 399.48C26.4287 398.787 24.9695 397.288 24.0135 394.982C23.0576 392.676 23.0356 390.742 23.9477 389.178C24.868 387.634 26.6301 386.488 29.2339 385.739Z" fill="#3A7146"/>
<path d="M25.8528 394.354C26.5391 396.009 27.5338 396.969 28.8369 397.234C30.1687 397.513 31.8289 397.366 33.8177 396.795C36.9751 395.887 38.6758 394.648 38.9198 393.078C39.0191 392.432 38.8604 391.606 38.4436 390.601C38.0351 389.616 37.4317 388.742 36.6335 387.979C34.7279 387.644 32.7295 387.778 30.6383 388.379C28.629 388.957 27.1873 389.658 26.3131 390.483C25.328 391.428 25.1746 392.718 25.8528 394.354ZM29.2339 385.739C31.8378 384.991 34.1045 384.979 36.0341 385.703C37.9842 386.421 39.4535 387.973 40.4422 390.358C41.4309 392.742 41.4692 394.661 40.5573 396.114C39.6658 397.561 37.9079 398.662 35.2836 399.417C32.6592 400.171 30.3617 400.192 28.3911 399.48C26.4287 398.787 24.9695 397.288 24.0135 394.982C23.0576 392.676 23.0356 390.742 23.9477 389.178C24.868 387.634 26.6301 386.488 29.2339 385.739Z" fill="#3A7146"/>
<path d="M371.305 43.6543C371.421 42.9671 371.607 42.1941 371.862 41.3353C372.118 40.4765 373.006 37.7898 374.526 33.2752L372.118 31.9945C372.288 31.422 372.638 30.8784 373.168 30.3638L379.96 33.1985L379.729 34.309C378.726 34.2582 377.767 34.1338 376.852 33.9358C375.352 39.4243 374.56 42.4957 374.476 43.1502C374.373 43.7965 374.358 44.3652 374.434 44.8564C374.503 45.3679 374.72 45.7918 375.084 46.1279C375.449 46.4641 376.055 46.8088 376.901 47.1621C377.728 47.5072 378.918 47.636 380.471 47.5487C381.976 42.9359 383.095 39.4722 383.828 37.1575L381.42 35.8769C381.591 35.3043 381.941 34.7607 382.47 34.2461L389.262 37.0808L389.031 38.1913C388.028 38.1405 387.069 38.0161 386.155 37.8182C385.736 39.2986 385.168 41.3946 384.45 44.1062C383.726 46.8381 383.249 48.6274 383.019 49.474C384.084 49.9872 384.914 50.4715 385.508 50.9266L384.916 52.4723C383.762 52.3353 382.17 51.8436 380.143 50.9973C380.019 50.3711 380 49.7655 380.086 49.1806C379.079 49.2893 378.101 49.3409 377.151 49.3352C376.195 49.3499 375.609 49.3121 375.392 49.2217C373.207 48.3097 371.888 46.9777 371.436 45.2257C370.378 45.3589 369.303 45.4389 368.21 45.4657C367.092 45.5047 366.435 45.4832 366.238 45.401C364.446 44.6533 363.244 43.6345 362.632 42.3446C361.994 41.0669 361.982 39.3955 362.597 37.3302C362.779 36.7168 363.655 34.071 365.223 29.3928L362.816 28.1122C362.986 27.5396 363.336 26.9961 363.865 26.4814L370.657 29.3161L370.427 30.4266C369.424 30.3758 368.465 30.2514 367.55 30.0535C366.668 33.3171 366.01 35.7894 365.576 37.4703C365.142 39.1512 365.028 40.3908 365.233 41.189C365.432 42.0077 366.123 42.6635 367.304 43.1565C368.485 43.6495 369.819 43.8154 371.305 43.6543Z" fill="#3A7146"/>
<path d="M371.305 43.6543C371.421 42.9671 371.607 42.1941 371.862 41.3353C372.118 40.4765 373.006 37.7898 374.526 33.2752L372.118 31.9945C372.288 31.422 372.638 30.8784 373.168 30.3638L379.96 33.1985L379.729 34.309C378.726 34.2582 377.767 34.1338 376.852 33.9358C375.352 39.4243 374.56 42.4957 374.476 43.1502C374.373 43.7965 374.358 44.3652 374.434 44.8564C374.503 45.3679 374.72 45.7918 375.084 46.1279C375.449 46.4641 376.055 46.8088 376.901 47.1621C377.728 47.5072 378.918 47.636 380.471 47.5487C381.976 42.9359 383.095 39.4722 383.828 37.1575L381.42 35.8769C381.591 35.3043 381.941 34.7607 382.47 34.2461L389.262 37.0808L389.031 38.1913C388.028 38.1405 387.069 38.0161 386.155 37.8182C385.736 39.2986 385.168 41.3946 384.45 44.1062C383.726 46.8381 383.249 48.6274 383.019 49.474C384.084 49.9872 384.914 50.4715 385.508 50.9266L384.916 52.4723C383.762 52.3353 382.17 51.8436 380.143 50.9973C380.019 50.3711 380 49.7655 380.086 49.1806C379.079 49.2893 378.101 49.3409 377.151 49.3352C376.195 49.3499 375.609 49.3121 375.392 49.2217C373.207 48.3097 371.888 46.9777 371.436 45.2257C370.378 45.3589 369.303 45.4389 368.21 45.4657C367.092 45.5047 366.435 45.4832 366.238 45.401C364.446 44.6533 363.244 43.6345 362.632 42.3446C361.994 41.0669 361.982 39.3955 362.597 37.3302C362.779 36.7168 363.655 34.071 365.223 29.3928L362.816 28.1122C362.986 27.5396 363.336 26.9961 363.865 26.4814L370.657 29.3161L370.427 30.4266C369.424 30.3758 368.465 30.2514 367.55 30.0535C366.668 33.3171 366.01 35.7894 365.576 37.4703C365.142 39.1512 365.028 40.3908 365.233 41.189C365.432 42.0077 366.123 42.6635 367.304 43.1565C368.485 43.6495 369.819 43.8154 371.305 43.6543Z" fill="#3A7146"/>
<path d="M371.305 43.6543C371.421 42.9671 371.607 42.1941 371.862 41.3353C372.118 40.4765 373.006 37.7898 374.526 33.2752L372.118 31.9945C372.288 31.422 372.638 30.8784 373.168 30.3638L379.96 33.1985L379.729 34.309C378.726 34.2582 377.767 34.1338 376.852 33.9358C375.352 39.4243 374.56 42.4957 374.476 43.1502C374.373 43.7965 374.358 44.3652 374.434 44.8564C374.503 45.3679 374.72 45.7918 375.084 46.1279C375.449 46.4641 376.055 46.8088 376.901 47.1621C377.728 47.5072 378.918 47.636 380.471 47.5487C381.976 42.9359 383.095 39.4722 383.828 37.1575L381.42 35.8769C381.591 35.3043 381.941 34.7607 382.47 34.2461L389.262 37.0808L389.031 38.1913C388.028 38.1405 387.069 38.0161 386.155 37.8182C385.736 39.2986 385.168 41.3946 384.45 44.1062C383.726 46.8381 383.249 48.6274 383.019 49.474C384.084 49.9872 384.914 50.4715 385.508 50.9266L384.916 52.4723C383.762 52.3353 382.17 51.8436 380.143 50.9973C380.019 50.3711 380 49.7655 380.086 49.1806C379.079 49.2893 378.101 49.3409 377.151 49.3352C376.195 49.3499 375.609 49.3121 375.392 49.2217C373.207 48.3097 371.888 46.9777 371.436 45.2257C370.378 45.3589 369.303 45.4389 368.21 45.4657C367.092 45.5047 366.435 45.4832 366.238 45.401C364.446 44.6533 363.244 43.6345 362.632 42.3446C361.994 41.0669 361.982 39.3955 362.597 37.3302C362.779 36.7168 363.655 34.071 365.223 29.3928L362.816 28.1122C362.986 27.5396 363.336 26.9961 363.865 26.4814L370.657 29.3161L370.427 30.4266C369.424 30.3758 368.465 30.2514 367.55 30.0535C366.668 33.3171 366.01 35.7894 365.576 37.4703C365.142 39.1512 365.028 40.3908 365.233 41.189C365.432 42.0077 366.123 42.6635 367.304 43.1565C368.485 43.6495 369.819 43.8154 371.305 43.6543Z" fill="#3A7146"/>
<path d="M336.991 11.3763C336.204 11.1854 335.305 11.767 334.297 13.1213C333.268 14.4705 332.629 15.5531 332.382 16.3691L333.128 16.55L335.672 31.6199L338.241 32.5054C338.141 33.0942 337.857 33.6823 337.389 34.2698L330.236 32.5363L330.332 31.4097C331.045 31.2761 331.821 31.2231 332.658 31.2509L331.423 21.9838L331.182 19.0347L330.871 18.9593L325.194 29.442L327.688 30.7691L327.406 31.8505L320.409 30.1546C320.171 29.3963 320.103 28.7227 320.203 28.1339C321.071 28.2348 321.934 28.3672 322.791 28.5311C323.603 27.0636 324.819 24.8728 326.44 21.9587C328.04 19.0396 329.299 16.7827 330.219 15.188C331.119 13.5884 331.962 12.3146 332.75 11.3668C333.538 10.419 334.264 9.83927 334.926 9.62749C335.571 9.38966 336.256 9.35868 336.982 9.53454C338.268 9.84607 339.427 10.3898 340.46 11.1659L340.972 11.5854C340.417 13.9476 340.099 15.2392 340.018 15.4605C339.842 15.4834 339.235 15.3692 338.199 15.118L337.691 11.6443C337.515 11.536 337.282 11.4467 336.991 11.3763Z" fill="#3A7146"/>
<path d="M336.991 11.3763C336.204 11.1854 335.305 11.767 334.297 13.1213C333.268 14.4705 332.629 15.5531 332.382 16.3691L333.128 16.55L335.672 31.6199L338.241 32.5054C338.141 33.0942 337.857 33.6823 337.389 34.2698L330.236 32.5363L330.332 31.4097C331.045 31.2761 331.821 31.2231 332.658 31.2509L331.423 21.9838L331.182 19.0347L330.871 18.9593L325.194 29.442L327.688 30.7691L327.406 31.8505L320.409 30.1546C320.171 29.3963 320.103 28.7227 320.203 28.1339C321.071 28.2348 321.934 28.3672 322.791 28.5311C323.603 27.0636 324.819 24.8728 326.44 21.9587C328.04 19.0396 329.299 16.7827 330.219 15.188C331.119 13.5884 331.962 12.3146 332.75 11.3668C333.538 10.419 334.264 9.83927 334.926 9.62749C335.571 9.38966 336.256 9.35868 336.982 9.53454C338.268 9.84607 339.427 10.3898 340.46 11.1659L340.972 11.5854C340.417 13.9476 340.099 15.2392 340.018 15.4605C339.842 15.4834 339.235 15.3692 338.199 15.118L337.691 11.6443C337.515 11.536 337.282 11.4467 336.991 11.3763Z" fill="#3A7146"/>
<path d="M336.991 11.3763C336.204 11.1854 335.305 11.767 334.297 13.1213C333.268 14.4705 332.629 15.5531 332.382 16.3691L333.128 16.55L335.672 31.6199L338.241 32.5054C338.141 33.0942 337.857 33.6823 337.389 34.2698L330.236 32.5363L330.332 31.4097C331.045 31.2761 331.821 31.2231 332.658 31.2509L331.423 21.9838L331.182 19.0347L330.871 18.9593L325.194 29.442L327.688 30.7691L327.406 31.8505L320.409 30.1546C320.171 29.3963 320.103 28.7227 320.203 28.1339C321.071 28.2348 321.934 28.3672 322.791 28.5311C323.603 27.0636 324.819 24.8728 326.44 21.9587C328.04 19.0396 329.299 16.7827 330.219 15.188C331.119 13.5884 331.962 12.3146 332.75 11.3668C333.538 10.419 334.264 9.83927 334.926 9.62749C335.571 9.38966 336.256 9.35868 336.982 9.53454C338.268 9.84607 339.427 10.3898 340.46 11.1659L340.972 11.5854C340.417 13.9476 340.099 15.2392 340.018 15.4605C339.842 15.4834 339.235 15.3692 338.199 15.118L337.691 11.6443C337.515 11.536 337.282 11.4467 336.991 11.3763Z" fill="#3A7146"/>
<path d="M279.852 9.56012L280.126 2.71773L277.347 2.41268C277.357 1.81543 277.549 1.1808 277.923 0.508789L285.344 0.725023L285.421 1.84766C284.435 2.13904 283.471 2.35637 282.53 2.49968C282.513 11.2062 282.512 17.6831 282.526 21.9303C283.486 21.9796 284.422 22.1349 285.335 22.3963L285.179 24.0563C283.937 24.3402 282.207 24.4499 279.989 24.3852C279.803 24.0384 279.632 23.4038 279.477 22.4817C276.724 23.7886 274.985 24.4315 274.26 24.4104C272.277 24.3526 270.819 23.5312 269.885 21.9461C268.951 20.3823 268.505 18.3633 268.546 15.889C268.587 13.436 269.165 11.3935 270.28 9.76137C271.374 8.12867 272.945 7.34215 274.992 7.4018C275.76 7.42417 276.599 7.64069 277.509 8.05135C278.399 8.4614 279.18 8.96432 279.852 9.56012ZM274.876 22.0275C276.198 22.066 277.741 21.6415 279.506 20.7539C279.614 16.7877 279.707 13.8134 279.782 11.8309C279.258 11.2821 278.563 10.771 277.696 10.2976C276.807 9.84486 276.033 9.60888 275.372 9.58961C272.855 9.51629 271.563 11.5487 271.494 15.6868C271.467 17.2652 271.628 18.5077 271.976 19.4141C272.323 20.3419 272.728 21.0046 273.19 21.4022C273.653 21.7998 274.215 22.0082 274.876 22.0275Z" fill="#3A7146"/>
<path d="M279.852 9.56012L280.126 2.71773L277.347 2.41268C277.357 1.81543 277.549 1.1808 277.923 0.508789L285.344 0.725023L285.421 1.84766C284.435 2.13904 283.471 2.35637 282.53 2.49968C282.513 11.2062 282.512 17.6831 282.526 21.9303C283.486 21.9796 284.422 22.1349 285.335 22.3963L285.179 24.0563C283.937 24.3402 282.207 24.4499 279.989 24.3852C279.803 24.0384 279.632 23.4038 279.477 22.4817C276.724 23.7886 274.985 24.4315 274.26 24.4104C272.277 24.3526 270.819 23.5312 269.885 21.9461C268.951 20.3823 268.505 18.3633 268.546 15.889C268.587 13.436 269.165 11.3935 270.28 9.76137C271.374 8.12867 272.945 7.34215 274.992 7.4018C275.76 7.42417 276.599 7.64069 277.509 8.05135C278.399 8.4614 279.18 8.96432 279.852 9.56012ZM274.876 22.0275C276.198 22.066 277.741 21.6415 279.506 20.7539C279.614 16.7877 279.707 13.8134 279.782 11.8309C279.258 11.2821 278.563 10.771 277.696 10.2976C276.807 9.84486 276.033 9.60888 275.372 9.58961C272.855 9.51629 271.563 11.5487 271.494 15.6868C271.467 17.2652 271.628 18.5077 271.976 19.4141C272.323 20.3419 272.728 21.0046 273.19 21.4022C273.653 21.7998 274.215 22.0082 274.876 22.0275Z" fill="#3A7146"/>
<path d="M279.852 9.56012L280.126 2.71773L277.347 2.41268C277.357 1.81543 277.549 1.1808 277.923 0.508789L285.344 0.725023L285.421 1.84766C284.435 2.13904 283.471 2.35637 282.53 2.49968C282.513 11.2062 282.512 17.6831 282.526 21.9303C283.486 21.9796 284.422 22.1349 285.335 22.3963L285.179 24.0563C283.937 24.3402 282.207 24.4499 279.989 24.3852C279.803 24.0384 279.632 23.4038 279.477 22.4817C276.724 23.7886 274.985 24.4315 274.26 24.4104C272.277 24.3526 270.819 23.5312 269.885 21.9461C268.951 20.3823 268.505 18.3633 268.546 15.889C268.587 13.436 269.165 11.3935 270.28 9.76137C271.374 8.12867 272.945 7.34215 274.992 7.4018C275.76 7.42417 276.599 7.64069 277.509 8.05135C278.399 8.4614 279.18 8.96432 279.852 9.56012ZM274.876 22.0275C276.198 22.066 277.741 21.6415 279.506 20.7539C279.614 16.7877 279.707 13.8134 279.782 11.8309C279.258 11.2821 278.563 10.771 277.696 10.2976C276.807 9.84486 276.033 9.60888 275.372 9.58961C272.855 9.51629 271.563 11.5487 271.494 15.6868C271.467 17.2652 271.628 18.5077 271.976 19.4141C272.323 20.3419 272.728 21.0046 273.19 21.4022C273.653 21.7998 274.215 22.0082 274.876 22.0275Z" fill="#3A7146"/>
<path d="M246.771 31.688C246.114 31.7594 245.645 31.7887 245.366 31.7761C245.334 31.3934 245.357 30.8869 245.433 30.2565C245.49 29.6497 245.535 29.2909 245.569 29.18C245.53 28.7122 245.471 27.7426 245.392 26.271C245.314 24.7994 245.241 23.6596 245.174 22.8517C244.302 23.4396 243.436 23.9626 242.575 24.4207C241.693 24.8811 241.135 25.124 240.902 25.1493C238.866 25.3702 237.35 25.0198 236.354 24.0983C235.359 23.198 234.777 21.7167 234.606 19.6544C234.557 19.059 234.413 16.2859 234.175 11.335L231.482 11.3698C231.433 10.7745 231.56 10.1171 231.865 9.39767L239.182 8.60378L239.369 9.70962C238.422 10.1556 237.488 10.5143 236.569 10.7857C237.157 16.3422 237.529 19.423 237.686 20.028C237.824 20.6567 238.018 21.1933 238.269 21.6381C238.52 22.0828 238.865 22.3778 239.305 22.5232C239.745 22.6685 240.315 22.7032 241.015 22.6272C242.457 22.4708 243.807 21.981 245.066 21.158L244.356 10.2305L241.662 10.2653C241.613 9.66998 241.74 9.0126 242.045 8.29313L249.362 7.49925L249.55 8.60509C248.602 9.05112 247.669 9.4098 246.75 9.68113L248.726 28.9339C249.898 28.8711 250.842 28.8975 251.557 29.0129L251.567 30.685C250.512 31.1213 248.913 31.4556 246.771 31.688Z" fill="#3A7146"/>
<path d="M246.771 31.688C246.114 31.7594 245.645 31.7887 245.366 31.7761C245.334 31.3934 245.357 30.8869 245.433 30.2565C245.49 29.6497 245.535 29.2909 245.569 29.18C245.53 28.7122 245.471 27.7426 245.392 26.271C245.314 24.7994 245.241 23.6596 245.174 22.8517C244.302 23.4396 243.436 23.9626 242.575 24.4207C241.693 24.8811 241.135 25.124 240.902 25.1493C238.866 25.3702 237.35 25.0198 236.354 24.0983C235.359 23.198 234.777 21.7167 234.606 19.6544C234.557 19.059 234.413 16.2859 234.175 11.335L231.482 11.3698C231.433 10.7745 231.56 10.1171 231.865 9.39767L239.182 8.60378L239.369 9.70962C238.422 10.1556 237.488 10.5143 236.569 10.7857C237.157 16.3422 237.529 19.423 237.686 20.028C237.824 20.6567 238.018 21.1933 238.269 21.6381C238.52 22.0828 238.865 22.3778 239.305 22.5232C239.745 22.6685 240.315 22.7032 241.015 22.6272C242.457 22.4708 243.807 21.981 245.066 21.158L244.356 10.2305L241.662 10.2653C241.613 9.66998 241.74 9.0126 242.045 8.29313L249.362 7.49925L249.55 8.60509C248.602 9.05112 247.669 9.4098 246.75 9.68113L248.726 28.9339C249.898 28.8711 250.842 28.8975 251.557 29.0129L251.567 30.685C250.512 31.1213 248.913 31.4556 246.771 31.688Z" fill="#3A7146"/>
<path d="M246.771 31.688C246.114 31.7594 245.645 31.7887 245.366 31.7761C245.334 31.3934 245.357 30.8869 245.433 30.2565C245.49 29.6497 245.535 29.2909 245.569 29.18C245.53 28.7122 245.471 27.7426 245.392 26.271C245.314 24.7994 245.241 23.6596 245.174 22.8517C244.302 23.4396 243.436 23.9626 242.575 24.4207C241.693 24.8811 241.135 25.124 240.902 25.1493C238.866 25.3702 237.35 25.0198 236.354 24.0983C235.359 23.198 234.777 21.7167 234.606 19.6544C234.557 19.059 234.413 16.2859 234.175 11.335L231.482 11.3698C231.433 10.7745 231.56 10.1171 231.865 9.39767L239.182 8.60378L239.369 9.70962C238.422 10.1556 237.488 10.5143 236.569 10.7857C237.157 16.3422 237.529 19.423 237.686 20.028C237.824 20.6567 238.018 21.1933 238.269 21.6381C238.52 22.0828 238.865 22.3778 239.305 22.5232C239.745 22.6685 240.315 22.7032 241.015 22.6272C242.457 22.4708 243.807 21.981 245.066 21.158L244.356 10.2305L241.662 10.2653C241.613 9.66998 241.74 9.0126 242.045 8.29313L249.362 7.49925L249.55 8.60509C248.602 9.05112 247.669 9.4098 246.75 9.68113L248.726 28.9339C249.898 28.8711 250.842 28.8975 251.557 29.0129L251.567 30.685C250.512 31.1213 248.913 31.4556 246.771 31.688Z" fill="#3A7146"/>
<path d="M205.324 15.3187C203.584 15.7474 202.513 16.5814 202.111 17.8208C201.692 19.0863 201.668 20.737 202.039 22.7729C202.627 26.0051 203.7 27.857 205.258 28.3285C205.899 28.5214 206.747 28.4877 207.804 28.2275C208.84 27.9723 209.783 27.5095 210.635 26.8391C211.17 25.0188 211.242 23.0383 210.852 20.8975C210.478 18.8406 209.92 17.3223 209.179 16.3426C208.328 15.2364 207.043 14.8951 205.324 15.3187ZM213.659 19.9099C214.144 22.5754 213.922 24.8012 212.992 26.5874C212.065 28.3946 210.349 29.6069 207.843 30.2244C205.336 30.842 203.398 30.5959 202.027 29.4862C200.66 28.3976 199.732 26.51 199.243 23.8235C198.754 21.1369 198.971 18.8796 199.893 17.0515C200.795 15.2284 202.458 14.0183 204.881 13.4212C207.305 12.8241 209.258 13.0886 210.74 14.2147C212.201 15.346 213.174 17.2443 213.659 19.9099Z" fill="#3A7146"/>
<path d="M205.324 15.3187C203.584 15.7474 202.513 16.5814 202.111 17.8208C201.692 19.0863 201.668 20.737 202.039 22.7729C202.627 26.0051 203.7 27.857 205.258 28.3285C205.899 28.5214 206.747 28.4877 207.804 28.2275C208.84 27.9723 209.783 27.5095 210.635 26.8391C211.17 25.0188 211.242 23.0383 210.852 20.8975C210.478 18.8406 209.92 17.3223 209.179 16.3426C208.328 15.2364 207.043 14.8951 205.324 15.3187ZM213.659 19.9099C214.144 22.5754 213.922 24.8012 212.992 26.5874C212.065 28.3946 210.349 29.6069 207.843 30.2244C205.336 30.842 203.398 30.5959 202.027 29.4862C200.66 28.3976 199.732 26.51 199.243 23.8235C198.754 21.1369 198.971 18.8796 199.893 17.0515C200.795 15.2284 202.458 14.0183 204.881 13.4212C207.305 12.8241 209.258 13.0886 210.74 14.2147C212.201 15.346 213.174 17.2443 213.659 19.9099Z" fill="#3A7146"/>
<path d="M205.324 15.3187C203.584 15.7474 202.513 16.5814 202.111 17.8208C201.692 19.0863 201.668 20.737 202.039 22.7729C202.627 26.0051 203.7 27.857 205.258 28.3285C205.899 28.5214 206.747 28.4877 207.804 28.2275C208.84 27.9723 209.783 27.5095 210.635 26.8391C211.17 25.0188 211.242 23.0383 210.852 20.8975C210.478 18.8406 209.92 17.3223 209.179 16.3426C208.328 15.2364 207.043 14.8951 205.324 15.3187ZM213.659 19.9099C214.144 22.5754 213.922 24.8012 212.992 26.5874C212.065 28.3946 210.349 29.6069 207.843 30.2244C205.336 30.842 203.398 30.5959 202.027 29.4862C200.66 28.3976 199.732 26.51 199.243 23.8235C198.754 21.1369 198.971 18.8796 199.893 17.0515C200.795 15.2284 202.458 14.0183 204.881 13.4212C207.305 12.8241 209.258 13.0886 210.74 14.2147C212.201 15.346 213.174 17.2443 213.659 19.9099Z" fill="#3A7146"/>
<path d="M176.914 23.5927L180.282 35.156L182.596 34.3083L182.976 35.357C182.815 35.5746 182.306 36.0553 181.449 36.7991L180.048 41.6578C179.636 41.7634 179.298 41.7741 179.033 41.69L178.151 38.2794C176.648 38.8298 175.389 39.1782 174.372 39.3245C174.223 38.7682 174.23 38.098 174.393 37.3139L177.638 36.1249C177.015 33.6377 176.048 29.8731 174.738 24.8311C173.6 25.1803 172.423 25.3853 171.207 25.4461L170.947 24.3533C171.178 24.0652 171.841 23.5846 172.936 22.9117C174.011 22.2461 174.92 21.7775 175.661 21.5059C175.805 21.6341 176.03 21.9366 176.334 22.4136C176.643 22.9112 176.837 23.3042 176.914 23.5927Z" fill="#3A7146"/>
<path d="M176.914 23.5927L180.282 35.156L182.596 34.3083L182.976 35.357C182.815 35.5746 182.306 36.0553 181.449 36.7991L180.048 41.6578C179.636 41.7634 179.298 41.7741 179.033 41.69L178.151 38.2794C176.648 38.8298 175.389 39.1782 174.372 39.3245C174.223 38.7682 174.23 38.098 174.393 37.3139L177.638 36.1249C177.015 33.6377 176.048 29.8731 174.738 24.8311C173.6 25.1803 172.423 25.3853 171.207 25.4461L170.947 24.3533C171.178 24.0652 171.841 23.5846 172.936 22.9117C174.011 22.2461 174.92 21.7775 175.661 21.5059C175.805 21.6341 176.03 21.9366 176.334 22.4136C176.643 22.9112 176.837 23.3042 176.914 23.5927Z" fill="#3A7146"/>
<path d="M176.914 23.5927L180.282 35.156L182.596 34.3083L182.976 35.357C182.815 35.5746 182.306 36.0553 181.449 36.7991L180.048 41.6578C179.636 41.7634 179.298 41.7741 179.033 41.69L178.151 38.2794C176.648 38.8298 175.389 39.1782 174.372 39.3245C174.223 38.7682 174.23 38.098 174.393 37.3139L177.638 36.1249C177.015 33.6377 176.048 29.8731 174.738 24.8311C173.6 25.1803 172.423 25.3853 171.207 25.4461L170.947 24.3533C171.178 24.0652 171.841 23.5846 172.936 22.9117C174.011 22.2461 174.92 21.7775 175.661 21.5059C175.805 21.6341 176.03 21.9366 176.334 22.4136C176.643 22.9112 176.837 23.3042 176.914 23.5927Z" fill="#3A7146"/>
<path d="M148.624 34.2582C147.018 35.0517 146.125 36.1074 145.946 37.425C145.756 38.7722 146.011 40.4193 146.712 42.3662C147.825 45.4572 149.173 47.0728 150.756 47.2132C151.407 47.2698 152.22 47.0572 153.196 46.5754C154.152 46.103 154.985 45.4435 155.694 44.5969C155.902 42.6735 155.638 40.6882 154.9 38.6409C154.192 36.674 153.398 35.2814 152.517 34.4632C151.51 33.5424 150.212 33.474 148.624 34.2582ZM157.442 37.0662C158.361 39.6153 158.521 41.8763 157.925 43.8493C157.336 45.8424 155.885 47.4105 153.57 48.5536C151.256 49.6968 149.344 49.8611 147.834 49.0465C146.331 48.252 145.117 46.5702 144.192 44.0011C143.266 41.432 143.095 39.1409 143.676 37.1277C144.239 35.124 145.639 33.5695 147.877 32.4642C150.115 31.3588 152.044 31.2099 153.664 32.0173C155.265 32.8342 156.524 34.5172 157.442 37.0662Z" fill="#3A7146"/>
<path d="M148.624 34.2582C147.018 35.0517 146.125 36.1074 145.946 37.425C145.756 38.7722 146.011 40.4193 146.712 42.3662C147.825 45.4572 149.173 47.0728 150.756 47.2132C151.407 47.2698 152.22 47.0572 153.196 46.5754C154.152 46.103 154.985 45.4435 155.694 44.5969C155.902 42.6735 155.638 40.6882 154.9 38.6409C154.192 36.674 153.398 35.2814 152.517 34.4632C151.51 33.5424 150.212 33.474 148.624 34.2582ZM157.442 37.0662C158.361 39.6153 158.521 41.8763 157.925 43.8493C157.336 45.8424 155.885 47.4105 153.57 48.5536C151.256 49.6968 149.344 49.8611 147.834 49.0465C146.331 48.252 145.117 46.5702 144.192 44.0011C143.266 41.432 143.095 39.1409 143.676 37.1277C144.239 35.124 145.639 33.5695 147.877 32.4642C150.115 31.3588 152.044 31.2099 153.664 32.0173C155.265 32.8342 156.524 34.5172 157.442 37.0662Z" fill="#3A7146"/>
<path d="M148.624 34.2582C147.018 35.0517 146.125 36.1074 145.946 37.425C145.756 38.7722 146.011 40.4193 146.712 42.3662C147.825 45.4572 149.173 47.0728 150.756 47.2132C151.407 47.2698 152.22 47.0572 153.196 46.5754C154.152 46.103 154.985 45.4435 155.694 44.5969C155.902 42.6735 155.638 40.6882 154.9 38.6409C154.192 36.674 153.398 35.2814 152.517 34.4632C151.51 33.5424 150.212 33.474 148.624 34.2582ZM157.442 37.0662C158.361 39.6153 158.521 41.8763 157.925 43.8493C157.336 45.8424 155.885 47.4105 153.57 48.5536C151.256 49.6968 149.344 49.8611 147.834 49.0465C146.331 48.252 145.117 46.5702 144.192 44.0011C143.266 41.432 143.095 39.1409 143.676 37.1277C144.239 35.124 145.639 33.5695 147.877 32.4642C150.115 31.3588 152.044 31.2099 153.664 32.0173C155.265 32.8342 156.524 34.5172 157.442 37.0662Z" fill="#3A7146"/>
<path d="M166.766 514.995C166.672 515.693 166.513 516.475 166.288 517.343C166.063 518.21 165.275 520.92 163.922 525.472L166.283 526.879C166.134 527.457 165.81 527.998 165.311 528.503L158.67 525.33L158.864 524.205C159.835 524.297 160.766 524.463 161.655 524.703C162.963 519.154 163.649 516.047 163.713 515.382C163.797 514.725 163.796 514.145 163.71 513.64C163.63 513.114 163.41 512.672 163.048 512.314C162.687 511.955 162.092 511.579 161.264 511.183C160.456 510.797 159.302 510.617 157.802 510.643C156.467 515.297 155.475 518.791 154.827 521.127L157.188 522.534C157.038 523.112 156.714 523.653 156.216 524.158L149.574 520.985L149.769 519.86C150.74 519.952 151.67 520.118 152.56 520.358C152.926 518.862 153.421 516.743 154.045 514C154.674 511.238 155.089 509.428 155.289 508.572C154.246 508.005 153.431 507.476 152.844 506.987L153.377 505.431C154.497 505.618 156.048 506.185 158.031 507.132C158.166 507.777 158.201 508.397 158.133 508.991C159.103 508.921 160.048 508.908 160.966 508.952C161.89 508.976 162.458 509.038 162.67 509.139C164.807 510.16 166.117 511.575 166.6 513.384C167.619 513.29 168.656 513.252 169.712 513.269C170.792 513.275 171.429 513.323 171.621 513.415C173.373 514.252 174.561 515.342 175.187 516.685C175.837 518.017 175.892 519.726 175.351 521.811C175.191 522.431 174.413 525.099 173.018 529.817L175.379 531.223C175.229 531.802 174.905 532.343 174.407 532.848L167.765 529.675L167.96 528.55C168.931 528.642 169.861 528.808 170.751 529.048C171.519 525.748 172.091 523.248 172.467 521.547C172.843 519.847 172.921 518.585 172.702 517.761C172.488 516.916 171.804 516.218 170.649 515.666C169.494 515.114 168.2 514.891 166.766 514.995Z" fill="#3A7146"/>
<path d="M166.766 514.995C166.672 515.693 166.513 516.475 166.288 517.343C166.063 518.21 165.275 520.92 163.922 525.472L166.283 526.879C166.134 527.457 165.81 527.998 165.311 528.503L158.67 525.33L158.864 524.205C159.835 524.297 160.766 524.463 161.655 524.703C162.963 519.154 163.649 516.047 163.713 515.382C163.797 514.725 163.796 514.145 163.71 513.64C163.63 513.114 163.41 512.672 163.048 512.314C162.687 511.955 162.092 511.579 161.264 511.183C160.456 510.797 159.302 510.617 157.802 510.643C156.467 515.297 155.475 518.791 154.827 521.127L157.188 522.534C157.038 523.112 156.714 523.653 156.216 524.158L149.574 520.985L149.769 519.86C150.74 519.952 151.67 520.118 152.56 520.358C152.926 518.862 153.421 516.743 154.045 514C154.674 511.238 155.089 509.428 155.289 508.572C154.246 508.005 153.431 507.476 152.844 506.987L153.377 505.431C154.497 505.618 156.048 506.185 158.031 507.132C158.166 507.777 158.201 508.397 158.133 508.991C159.103 508.921 160.048 508.908 160.966 508.952C161.89 508.976 162.458 509.038 162.67 509.139C164.807 510.16 166.117 511.575 166.6 513.384C167.619 513.29 168.656 513.252 169.712 513.269C170.792 513.275 171.429 513.323 171.621 513.415C173.373 514.252 174.561 515.342 175.187 516.685C175.837 518.017 175.892 519.726 175.351 521.811C175.191 522.431 174.413 525.099 173.018 529.817L175.379 531.223C175.229 531.802 174.905 532.343 174.407 532.848L167.765 529.675L167.96 528.55C168.931 528.642 169.861 528.808 170.751 529.048C171.519 525.748 172.091 523.248 172.467 521.547C172.843 519.847 172.921 518.585 172.702 517.761C172.488 516.916 171.804 516.218 170.649 515.666C169.494 515.114 168.2 514.891 166.766 514.995Z" fill="#3A7146"/>
<path d="M166.766 514.995C166.672 515.693 166.513 516.475 166.288 517.343C166.063 518.21 165.275 520.92 163.922 525.472L166.283 526.879C166.134 527.457 165.81 527.998 165.311 528.503L158.67 525.33L158.864 524.205C159.835 524.297 160.766 524.463 161.655 524.703C162.963 519.154 163.649 516.047 163.713 515.382C163.797 514.725 163.796 514.145 163.71 513.64C163.63 513.114 163.41 512.672 163.048 512.314C162.687 511.955 162.092 511.579 161.264 511.183C160.456 510.797 159.302 510.617 157.802 510.643C156.467 515.297 155.475 518.791 154.827 521.127L157.188 522.534C157.038 523.112 156.714 523.653 156.216 524.158L149.574 520.985L149.769 519.86C150.74 519.952 151.67 520.118 152.56 520.358C152.926 518.862 153.421 516.743 154.045 514C154.674 511.238 155.089 509.428 155.289 508.572C154.246 508.005 153.431 507.476 152.844 506.987L153.377 505.431C154.497 505.618 156.048 506.185 158.031 507.132C158.166 507.777 158.201 508.397 158.133 508.991C159.103 508.921 160.048 508.908 160.966 508.952C161.89 508.976 162.458 509.038 162.67 509.139C164.807 510.16 166.117 511.575 166.6 513.384C167.619 513.29 168.656 513.252 169.712 513.269C170.792 513.275 171.429 513.323 171.621 513.415C173.373 514.252 174.561 515.342 175.187 516.685C175.837 518.017 175.892 519.726 175.351 521.811C175.191 522.431 174.413 525.099 173.018 529.817L175.379 531.223C175.229 531.802 174.905 532.343 174.407 532.848L167.765 529.675L167.96 528.55C168.931 528.642 169.861 528.808 170.751 529.048C171.519 525.748 172.091 523.248 172.467 521.547C172.843 519.847 172.921 518.585 172.702 517.761C172.488 516.916 171.804 516.218 170.649 515.666C169.494 515.114 168.2 514.891 166.766 514.995Z" fill="#3A7146"/>
<path d="M204.578 550.638C205.359 550.856 206.234 550.297 207.201 548.963C208.19 547.634 208.798 546.562 209.025 545.746L208.285 545.54L205.474 530.255L202.922 529.281C203.009 528.69 203.278 528.106 203.727 527.528L210.817 529.502L210.746 530.636C210.045 530.748 209.281 530.777 208.454 530.723L209.858 540.111L210.155 543.094L210.464 543.18L215.853 532.783L213.366 531.365L213.623 530.283L220.559 532.214C220.808 532.987 220.889 533.668 220.802 534.259C219.944 534.13 219.09 533.969 218.241 533.777C217.47 535.232 216.314 537.404 214.774 540.294C213.255 543.188 212.057 545.426 211.182 547.006C210.327 548.591 209.52 549.85 208.762 550.781C208.004 551.713 207.3 552.275 206.651 552.468C206.019 552.688 205.344 552.697 204.625 552.497C203.35 552.142 202.196 551.557 201.161 550.742L200.648 550.302C201.148 547.936 201.435 546.643 201.511 546.422C201.685 546.405 202.285 546.539 203.313 546.825L203.883 550.346C204.059 550.461 204.291 550.558 204.578 550.638Z" fill="#3A7146"/>
<path d="M204.578 550.638C205.359 550.856 206.234 550.297 207.201 548.963C208.19 547.634 208.798 546.562 209.025 545.746L208.285 545.54L205.474 530.255L202.922 529.281C203.009 528.69 203.278 528.106 203.727 527.528L210.817 529.502L210.746 530.636C210.045 530.748 209.281 530.777 208.454 530.723L209.858 540.111L210.155 543.094L210.464 543.18L215.853 532.783L213.366 531.365L213.623 530.283L220.559 532.214C220.808 532.987 220.889 533.668 220.802 534.259C219.944 534.13 219.09 533.969 218.241 533.777C217.47 535.232 216.314 537.404 214.774 540.294C213.255 543.188 212.057 545.426 211.182 547.006C210.327 548.591 209.52 549.85 208.762 550.781C208.004 551.713 207.3 552.275 206.651 552.468C206.019 552.688 205.344 552.697 204.625 552.497C203.35 552.142 202.196 551.557 201.161 550.742L200.648 550.302C201.148 547.936 201.435 546.643 201.511 546.422C201.685 546.405 202.285 546.539 203.313 546.825L203.883 550.346C204.059 550.461 204.291 550.558 204.578 550.638Z" fill="#3A7146"/>
<path d="M204.578 550.638C205.359 550.856 206.234 550.297 207.201 548.963C208.19 547.634 208.798 546.562 209.025 545.746L208.285 545.54L205.474 530.255L202.922 529.281C203.009 528.69 203.278 528.106 203.727 527.528L210.817 529.502L210.746 530.636C210.045 530.748 209.281 530.777 208.454 530.723L209.858 540.111L210.155 543.094L210.464 543.18L215.853 532.783L213.366 531.365L213.623 530.283L220.559 532.214C220.808 532.987 220.889 533.668 220.802 534.259C219.944 534.13 219.09 533.969 218.241 533.777C217.47 535.232 216.314 537.404 214.774 540.294C213.255 543.188 212.057 545.426 211.182 547.006C210.327 548.591 209.52 549.85 208.762 550.781C208.004 551.713 207.3 552.275 206.651 552.468C206.019 552.688 205.344 552.697 204.625 552.497C203.35 552.142 202.196 551.557 201.161 550.742L200.648 550.302C201.148 547.936 201.435 546.643 201.511 546.422C201.685 546.405 202.285 546.539 203.313 546.825L203.883 550.346C204.059 550.461 204.291 550.558 204.578 550.638Z" fill="#3A7146"/>
<path d="M264.221 554.407L263.974 561.249L266.754 561.572C266.746 562.169 266.557 562.802 266.186 563.472L258.766 563.209L258.685 562.086C259.669 561.801 260.632 561.59 261.572 561.452C261.555 552.744 261.53 546.266 261.499 542.018C260.54 541.963 259.603 541.802 258.69 541.535L258.839 539.875C260.079 539.599 261.808 539.5 264.025 539.579C264.213 539.927 264.386 540.563 264.545 541.486C267.292 540.196 269.027 539.564 269.752 539.59C271.735 539.66 273.196 540.491 274.136 542.082C275.076 543.652 275.53 545.674 275.499 548.148C275.467 550.602 274.898 552.641 273.789 554.266C272.702 555.892 271.135 556.669 269.089 556.596C268.321 556.569 267.481 556.347 266.569 555.931C265.679 555.515 264.896 555.007 264.221 554.407ZM269.146 541.969C267.824 541.922 266.283 542.337 264.523 543.214C264.43 547.18 264.35 550.154 264.282 552.137C264.808 552.689 265.506 553.204 266.374 553.683C267.264 554.142 268.039 554.383 268.7 554.406C271.216 554.495 272.5 552.47 272.553 548.332C272.573 546.754 272.407 545.51 272.056 544.601C271.705 543.671 271.298 543.006 270.834 542.605C270.37 542.205 269.807 541.993 269.146 541.969Z" fill="#3A7146"/>
<path d="M264.221 554.407L263.974 561.249L266.754 561.572C266.746 562.169 266.557 562.802 266.186 563.472L258.766 563.209L258.685 562.086C259.669 561.801 260.632 561.59 261.572 561.452C261.555 552.744 261.53 546.266 261.499 542.018C260.54 541.963 259.603 541.802 258.69 541.535L258.839 539.875C260.079 539.599 261.808 539.5 264.025 539.579C264.213 539.927 264.386 540.563 264.545 541.486C267.292 540.196 269.027 539.564 269.752 539.59C271.735 539.66 273.196 540.491 274.136 542.082C275.076 543.652 275.53 545.674 275.499 548.148C275.467 550.602 274.898 552.641 273.789 554.266C272.702 555.892 271.135 556.669 269.089 556.596C268.321 556.569 267.481 556.347 266.569 555.931C265.679 555.515 264.896 555.007 264.221 554.407ZM269.146 541.969C267.824 541.922 266.283 542.337 264.523 543.214C264.43 547.18 264.35 550.154 264.282 552.137C264.808 552.689 265.506 553.204 266.374 553.683C267.264 554.142 268.039 554.383 268.7 554.406C271.216 554.495 272.5 552.47 272.553 548.332C272.573 546.754 272.407 545.51 272.056 544.601C271.705 543.671 271.298 543.006 270.834 542.605C270.37 542.205 269.807 541.993 269.146 541.969Z" fill="#3A7146"/>
<path d="M264.221 554.407L263.974 561.249L266.754 561.572C266.746 562.169 266.557 562.802 266.186 563.472L258.766 563.209L258.685 562.086C259.669 561.801 260.632 561.59 261.572 561.452C261.555 552.744 261.53 546.266 261.499 542.018C260.54 541.963 259.603 541.802 258.69 541.535L258.839 539.875C260.079 539.599 261.808 539.5 264.025 539.579C264.213 539.927 264.386 540.563 264.545 541.486C267.292 540.196 269.027 539.564 269.752 539.59C271.735 539.66 273.196 540.491 274.136 542.082C275.076 543.652 275.53 545.674 275.499 548.148C275.467 550.602 274.898 552.641 273.789 554.266C272.702 555.892 271.135 556.669 269.089 556.596C268.321 556.569 267.481 556.347 266.569 555.931C265.679 555.515 264.896 555.007 264.221 554.407ZM269.146 541.969C267.824 541.922 266.283 542.337 264.523 543.214C264.43 547.18 264.35 550.154 264.282 552.137C264.808 552.689 265.506 553.204 266.374 553.683C267.264 554.142 268.039 554.383 268.7 554.406C271.216 554.495 272.5 552.47 272.553 548.332C272.573 546.754 272.407 545.51 272.056 544.601C271.705 543.671 271.298 543.006 270.834 542.605C270.37 542.205 269.807 541.993 269.146 541.969Z" fill="#3A7146"/>
<path d="M299.182 532.425C299.838 532.345 300.306 532.31 300.584 532.319C300.613 532.702 300.587 533.21 300.505 533.842C300.444 534.451 300.396 534.811 300.361 534.922C300.396 535.39 300.447 536.361 300.514 537.834C300.581 539.307 300.644 540.448 300.704 541.256C301.579 540.656 302.447 540.121 303.31 539.651C304.193 539.179 304.752 538.929 304.985 538.9C307.018 538.653 308.527 538.985 309.514 539.896C310.499 540.785 311.068 542.261 311.222 544.325C311.266 544.92 311.387 547.696 311.585 552.653L314.272 552.584C314.317 553.179 314.184 553.839 313.875 554.564L306.569 555.452L306.39 554.347C307.339 553.888 308.273 553.517 309.192 553.233C308.65 547.675 308.304 544.594 308.152 543.99C308.02 543.362 307.83 542.826 307.584 542.384C307.337 541.942 306.995 541.651 306.557 541.511C306.119 541.371 305.551 541.343 304.852 541.428C303.412 541.603 302.061 542.111 300.798 542.951L301.42 553.888L304.107 553.819C304.151 554.415 304.019 555.075 303.71 555.8L296.403 556.688L296.225 555.582C297.174 555.124 298.108 554.752 299.027 554.469L297.209 535.209C296.04 535.286 295.099 535.272 294.385 535.166L294.389 533.491C295.445 533.04 297.043 532.685 299.182 532.425Z" fill="#3A7146"/>
<path d="M299.182 532.425C299.838 532.345 300.306 532.31 300.584 532.319C300.613 532.702 300.587 533.21 300.505 533.842C300.444 534.451 300.396 534.811 300.361 534.922C300.396 535.39 300.447 536.361 300.514 537.834C300.581 539.307 300.644 540.448 300.704 541.256C301.579 540.656 302.447 540.121 303.31 539.651C304.193 539.179 304.752 538.929 304.985 538.9C307.018 538.653 308.527 538.985 309.514 539.896C310.499 540.785 311.068 542.261 311.222 544.325C311.266 544.92 311.387 547.696 311.585 552.653L314.272 552.584C314.317 553.179 314.184 553.839 313.875 554.564L306.569 555.452L306.39 554.347C307.339 553.888 308.273 553.517 309.192 553.233C308.65 547.675 308.304 544.594 308.152 543.99C308.02 543.362 307.83 542.826 307.584 542.384C307.337 541.942 306.995 541.651 306.557 541.511C306.119 541.371 305.551 541.343 304.852 541.428C303.412 541.603 302.061 542.111 300.798 542.951L301.42 553.888L304.107 553.819C304.151 554.415 304.019 555.075 303.71 555.8L296.403 556.688L296.225 555.582C297.174 555.124 298.108 554.752 299.027 554.469L297.209 535.209C296.04 535.286 295.099 535.272 294.385 535.166L294.389 533.491C295.445 533.04 297.043 532.685 299.182 532.425Z" fill="#3A7146"/>
<path d="M299.182 532.425C299.838 532.345 300.306 532.31 300.584 532.319C300.613 532.702 300.587 533.21 300.505 533.842C300.444 534.451 300.396 534.811 300.361 534.922C300.396 535.39 300.447 536.361 300.514 537.834C300.581 539.307 300.644 540.448 300.704 541.256C301.579 540.656 302.447 540.121 303.31 539.651C304.193 539.179 304.752 538.929 304.985 538.9C307.018 538.653 308.527 538.985 309.514 539.896C310.499 540.785 311.068 542.261 311.222 544.325C311.266 544.92 311.387 547.696 311.585 552.653L314.272 552.584C314.317 553.179 314.184 553.839 313.875 554.564L306.569 555.452L306.39 554.347C307.339 553.888 308.273 553.517 309.192 553.233C308.65 547.675 308.304 544.594 308.152 543.99C308.02 543.362 307.83 542.826 307.584 542.384C307.337 541.942 306.995 541.651 306.557 541.511C306.119 541.371 305.551 541.343 304.852 541.428C303.412 541.603 302.061 542.111 300.798 542.951L301.42 553.888L304.107 553.819C304.151 554.415 304.019 555.075 303.71 555.8L296.403 556.688L296.225 555.582C297.174 555.124 298.108 554.752 299.027 554.469L297.209 535.209C296.04 535.286 295.099 535.272 294.385 535.166L294.389 533.491C295.445 533.04 297.043 532.685 299.182 532.425Z" fill="#3A7146"/>
<path d="M342.203 547.946C343.929 547.464 345.002 546.593 345.421 545.332C345.857 544.044 345.91 542.378 345.581 540.335C345.057 537.092 344.03 535.254 342.5 534.823C341.87 534.646 341.031 534.704 339.983 534.996C338.956 535.283 338.015 535.776 337.162 536.477C336.602 538.327 336.495 540.327 336.842 542.475C337.176 544.539 337.7 546.055 338.414 547.022C339.235 548.114 340.498 548.422 342.203 547.946ZM334.052 543.55C333.621 540.876 333.88 538.625 334.83 536.797C335.777 534.948 337.494 533.677 339.98 532.983C342.467 532.29 344.377 532.484 345.711 533.564C347.042 534.623 347.925 536.501 348.36 539.197C348.796 541.893 348.541 544.175 347.598 546.045C346.675 547.909 345.011 549.177 342.607 549.847C340.203 550.518 338.279 550.306 336.835 549.212C335.412 548.112 334.484 546.225 334.052 543.55Z" fill="#3A7146"/>
<path d="M342.203 547.946C343.929 547.464 345.002 546.593 345.421 545.332C345.857 544.044 345.91 542.378 345.581 540.335C345.057 537.092 344.03 535.254 342.5 534.823C341.87 534.646 341.031 534.704 339.983 534.996C338.956 535.283 338.015 535.776 337.162 536.477C336.602 538.327 336.495 540.327 336.842 542.475C337.176 544.539 337.7 546.055 338.414 547.022C339.235 548.114 340.498 548.422 342.203 547.946ZM334.052 543.55C333.621 540.876 333.88 538.625 334.83 536.797C335.777 534.948 337.494 533.677 339.98 532.983C342.467 532.29 344.377 532.484 345.711 533.564C347.042 534.623 347.925 536.501 348.36 539.197C348.796 541.893 348.541 544.175 347.598 546.045C346.675 547.909 345.011 549.177 342.607 549.847C340.203 550.518 338.279 550.306 336.835 549.212C335.412 548.112 334.484 546.225 334.052 543.55Z" fill="#3A7146"/>
<path d="M342.203 547.946C343.929 547.464 345.002 546.593 345.421 545.332C345.857 544.044 345.91 542.378 345.581 540.335C345.057 537.092 344.03 535.254 342.5 534.823C341.87 534.646 341.031 534.704 339.983 534.996C338.956 535.283 338.015 535.776 337.162 536.477C336.602 538.327 336.495 540.327 336.842 542.475C337.176 544.539 337.7 546.055 338.414 547.022C339.235 548.114 340.498 548.422 342.203 547.946ZM334.052 543.55C333.621 540.876 333.88 538.625 334.83 536.797C335.777 534.948 337.494 533.677 339.98 532.983C342.467 532.29 344.377 532.484 345.711 533.564C347.042 534.623 347.925 536.501 348.36 539.197C348.796 541.893 348.541 544.175 347.598 546.045C346.675 547.909 345.011 549.177 342.607 549.847C340.203 550.518 338.279 550.306 336.835 549.212C335.412 548.112 334.484 546.225 334.052 543.55Z" fill="#3A7146"/>
<path d="M372.337 538.236L369.316 526.596L367.041 527.542L366.694 526.489C366.857 526.262 367.364 525.754 368.216 524.967L369.693 519.974C370.097 519.851 370.427 519.828 370.683 519.904L371.466 523.341C372.943 522.727 374.179 522.327 375.174 522.141C375.307 522.701 375.284 523.383 375.107 524.187L371.916 525.514C372.468 528.021 373.325 531.816 374.487 536.897C375.604 536.5 376.757 536.249 377.943 536.143L378.172 537.245C377.941 537.547 377.284 538.06 376.2 538.784C375.137 539.5 374.24 540.01 373.512 540.313C373.374 540.188 373.162 539.888 372.876 539.414C372.586 538.919 372.406 538.526 372.337 538.236Z" fill="#3A7146"/>
<path d="M372.337 538.236L369.316 526.596L367.041 527.542L366.694 526.489C366.857 526.262 367.364 525.754 368.216 524.967L369.693 519.974C370.097 519.851 370.427 519.828 370.683 519.904L371.466 523.341C372.943 522.727 374.179 522.327 375.174 522.141C375.307 522.701 375.284 523.383 375.107 524.187L371.916 525.514C372.468 528.021 373.325 531.816 374.487 536.897C375.604 536.5 376.757 536.249 377.943 536.143L378.172 537.245C377.941 537.547 377.284 538.06 376.2 538.784C375.137 539.5 374.24 540.01 373.512 540.313C373.374 540.188 373.162 539.888 372.876 539.414C372.586 538.919 372.406 538.526 372.337 538.236Z" fill="#3A7146"/>
<path d="M372.337 538.236L369.316 526.596L367.041 527.542L366.694 526.489C366.857 526.262 367.364 525.754 368.216 524.967L369.693 519.974C370.097 519.851 370.427 519.828 370.683 519.904L371.466 523.341C372.943 522.727 374.179 522.327 375.174 522.141C375.307 522.701 375.284 523.383 375.107 524.187L371.916 525.514C372.468 528.021 373.325 531.816 374.487 536.897C375.604 536.5 376.757 536.249 377.943 536.143L378.172 537.245C377.941 537.547 377.284 538.06 376.2 538.784C375.137 539.5 374.24 540.01 373.512 540.313C373.374 540.188 373.162 539.888 372.876 539.414C372.586 538.919 372.406 538.526 372.337 538.236Z" fill="#3A7146"/>
<path d="M401.57 525.862C403.133 524.985 404.016 523.866 404.22 522.506C404.435 521.115 404.23 519.433 403.604 517.461C402.61 514.329 401.354 512.723 399.838 512.64C399.213 512.607 398.427 512.857 397.478 513.39C396.548 513.912 395.733 514.622 395.031 515.519C394.784 517.503 394.99 519.531 395.649 521.605C396.282 523.598 397.011 524.997 397.837 525.803C398.782 526.71 400.027 526.73 401.57 525.862ZM393.169 523.321C392.349 520.739 392.249 518.423 392.87 516.374C393.484 514.304 394.916 512.637 397.167 511.373C399.417 510.109 401.258 509.866 402.688 510.643C404.113 511.401 405.238 513.081 406.064 515.684C406.891 518.286 407 520.633 406.393 522.723C405.804 524.803 404.421 526.454 402.245 527.676C400.069 528.898 398.212 529.126 396.676 528.36C395.158 527.583 393.989 525.904 393.169 523.321Z" fill="#3A7146"/>
<path d="M401.57 525.862C403.133 524.985 404.016 523.866 404.22 522.506C404.435 521.115 404.23 519.433 403.604 517.461C402.61 514.329 401.354 512.723 399.838 512.64C399.213 512.607 398.427 512.857 397.478 513.39C396.548 513.912 395.733 514.622 395.031 515.519C394.784 517.503 394.99 519.531 395.649 521.605C396.282 523.598 397.011 524.997 397.837 525.803C398.782 526.71 400.027 526.73 401.57 525.862ZM393.169 523.321C392.349 520.739 392.249 518.423 392.87 516.374C393.484 514.304 394.916 512.637 397.167 511.373C399.417 510.109 401.258 509.866 402.688 510.643C404.113 511.401 405.238 513.081 406.064 515.684C406.891 518.286 407 520.633 406.393 522.723C405.804 524.803 404.421 526.454 402.245 527.676C400.069 528.898 398.212 529.126 396.676 528.36C395.158 527.583 393.989 525.904 393.169 523.321Z" fill="#3A7146"/>
<path d="M401.57 525.862C403.133 524.985 404.016 523.866 404.22 522.506C404.435 521.115 404.23 519.433 403.604 517.461C402.61 514.329 401.354 512.723 399.838 512.64C399.213 512.607 398.427 512.857 397.478 513.39C396.548 513.912 395.733 514.622 395.031 515.519C394.784 517.503 394.99 519.531 395.649 521.605C396.282 523.598 397.011 524.997 397.837 525.803C398.782 526.71 400.027 526.73 401.57 525.862ZM393.169 523.321C392.349 520.739 392.249 518.423 392.87 516.374C393.484 514.304 394.916 512.637 397.167 511.373C399.417 510.109 401.258 509.866 402.688 510.643C404.113 511.401 405.238 513.081 406.064 515.684C406.891 518.286 407 520.633 406.393 522.723C405.804 524.803 404.421 526.454 402.245 527.676C400.069 528.898 398.212 529.126 396.676 528.36C395.158 527.583 393.989 525.904 393.169 523.321Z" fill="#3A7146"/>
<path d="M512.75 396.035C513.448 396.087 514.237 396.201 515.116 396.376C515.995 396.55 518.749 397.184 523.379 398.276L524.532 395.794C525.118 395.911 525.685 396.206 526.233 396.681L523.761 403.613L522.63 403.485C522.625 402.495 522.696 401.54 522.844 400.623C517.235 399.637 514.099 399.132 513.436 399.108C512.779 399.064 512.206 399.1 511.716 399.218C511.205 399.332 510.791 399.583 510.473 399.972C510.155 400.36 509.842 400.987 509.534 401.851C509.233 402.695 509.17 403.877 509.345 405.396C514.073 406.465 517.622 407.256 519.993 407.771L521.147 405.289C521.733 405.405 522.3 405.701 522.848 406.175L520.376 413.108L519.245 412.98C519.24 411.989 519.311 411.035 519.459 410.118C517.945 409.838 515.804 409.466 513.034 409.002C510.243 408.533 508.415 408.224 507.55 408.074C507.094 409.166 506.653 410.025 506.228 410.651L504.639 410.206C504.712 409.059 505.118 407.45 505.855 405.38C506.479 405.203 507.087 405.13 507.681 405.162C507.515 404.182 507.408 403.225 507.36 402.29C507.292 401.351 507.297 400.772 507.376 400.55C508.171 398.32 509.438 396.904 511.176 396.303C510.982 395.274 510.841 394.224 510.753 393.152C510.651 392.056 510.636 391.408 510.707 391.207C511.359 389.378 512.317 388.105 513.581 387.388C514.831 386.647 516.513 386.486 518.627 386.906C519.254 387.031 521.967 387.656 526.764 388.782L527.918 386.3C528.503 386.416 529.07 386.712 529.618 387.186L527.146 394.119L526.016 393.991C526.01 393 526.082 392.046 526.229 391.128C522.895 390.552 520.369 390.125 518.653 389.849C516.937 389.572 515.682 389.57 514.891 389.843C514.078 390.112 513.456 390.849 513.026 392.055C512.597 393.261 512.505 394.587 512.75 396.035Z" fill="#3A7146"/>
<path d="M512.75 396.035C513.448 396.087 514.237 396.201 515.116 396.376C515.995 396.55 518.749 397.184 523.379 398.276L524.532 395.794C525.118 395.911 525.685 396.206 526.233 396.681L523.761 403.613L522.63 403.485C522.625 402.495 522.696 401.54 522.844 400.623C517.235 399.637 514.099 399.132 513.436 399.108C512.779 399.064 512.206 399.1 511.716 399.218C511.205 399.332 510.791 399.583 510.473 399.972C510.155 400.36 509.842 400.987 509.534 401.851C509.233 402.695 509.17 403.877 509.345 405.396C514.073 406.465 517.622 407.256 519.993 407.771L521.147 405.289C521.733 405.405 522.3 405.701 522.848 406.175L520.376 413.108L519.245 412.98C519.24 411.989 519.311 411.035 519.459 410.118C517.945 409.838 515.804 409.466 513.034 409.002C510.243 408.533 508.415 408.224 507.55 408.074C507.094 409.166 506.653 410.025 506.228 410.651L504.639 410.206C504.712 409.059 505.118 407.45 505.855 405.38C506.479 405.203 507.087 405.13 507.681 405.162C507.515 404.182 507.408 403.225 507.36 402.29C507.292 401.351 507.297 400.772 507.376 400.55C508.171 398.32 509.438 396.904 511.176 396.303C510.982 395.274 510.841 394.224 510.753 393.152C510.651 392.056 510.636 391.408 510.707 391.207C511.359 389.378 512.317 388.105 513.581 387.388C514.831 386.647 516.513 386.486 518.627 386.906C519.254 387.031 521.967 387.656 526.764 388.782L527.918 386.3C528.503 386.416 529.07 386.712 529.618 387.186L527.146 394.119L526.016 393.991C526.01 393 526.082 392.046 526.229 391.128C522.895 390.552 520.369 390.125 518.653 389.849C516.937 389.572 515.682 389.57 514.891 389.843C514.078 390.112 513.456 390.849 513.026 392.055C512.597 393.261 512.505 394.587 512.75 396.035Z" fill="#3A7146"/>
<path d="M512.75 396.035C513.448 396.087 514.237 396.201 515.116 396.376C515.995 396.55 518.749 397.184 523.379 398.276L524.532 395.794C525.118 395.911 525.685 396.206 526.233 396.681L523.761 403.613L522.63 403.485C522.625 402.495 522.696 401.54 522.844 400.623C517.235 399.637 514.099 399.132 513.436 399.108C512.779 399.064 512.206 399.1 511.716 399.218C511.205 399.332 510.791 399.583 510.473 399.972C510.155 400.36 509.842 400.987 509.534 401.851C509.233 402.695 509.17 403.877 509.345 405.396C514.073 406.465 517.622 407.256 519.993 407.771L521.147 405.289C521.733 405.405 522.3 405.701 522.848 406.175L520.376 413.108L519.245 412.98C519.24 411.989 519.311 411.035 519.459 410.118C517.945 409.838 515.804 409.466 513.034 409.002C510.243 408.533 508.415 408.224 507.55 408.074C507.094 409.166 506.653 410.025 506.228 410.651L504.639 410.206C504.712 409.059 505.118 407.45 505.855 405.38C506.479 405.203 507.087 405.13 507.681 405.162C507.515 404.182 507.408 403.225 507.36 402.29C507.292 401.351 507.297 400.772 507.376 400.55C508.171 398.32 509.438 396.904 511.176 396.303C510.982 395.274 510.841 394.224 510.753 393.152C510.651 392.056 510.636 391.408 510.707 391.207C511.359 389.378 512.317 388.105 513.581 387.388C514.831 386.647 516.513 386.486 518.627 386.906C519.254 387.031 521.967 387.656 526.764 388.782L527.918 386.3C528.503 386.416 529.07 386.712 529.618 387.186L527.146 394.119L526.016 393.991C526.01 393 526.082 392.046 526.229 391.128C522.895 390.552 520.369 390.125 518.653 389.849C516.937 389.572 515.682 389.57 514.891 389.843C514.078 390.112 513.456 390.849 513.026 392.055C512.597 393.261 512.505 394.587 512.75 396.035Z" fill="#3A7146"/>
<path d="M545.373 352.652C545.516 351.854 544.879 351.013 543.463 350.128C542.05 349.223 540.928 348.683 540.096 348.507L539.961 349.263L525.037 353.079L524.308 355.704C523.713 355.655 523.107 355.423 522.491 355.01L523.788 347.765L524.921 347.763C525.099 348.46 525.199 349.225 525.222 350.058L534.419 348.038L537.356 347.545L537.412 347.23L526.576 342.498L525.401 345.086L524.302 344.899L525.571 337.812C526.315 337.511 526.985 337.385 527.581 337.435C527.533 338.304 527.453 339.171 527.341 340.036C528.859 340.716 531.125 341.734 534.14 343.092C537.159 344.428 539.494 345.485 541.146 346.261C542.801 347.016 544.127 347.743 545.124 348.444C546.12 349.144 546.745 349.814 546.997 350.453C547.274 351.072 547.347 351.75 547.216 352.485C546.982 353.787 546.509 354.983 545.796 356.075L545.407 356.618C543.01 356.271 541.698 356.066 541.472 356.005C541.438 355.832 541.515 355.22 541.703 354.17L545.148 353.368C545.246 353.185 545.321 352.946 545.373 352.652Z" fill="#3A7146"/>
<path d="M545.373 352.652C545.516 351.854 544.879 351.013 543.463 350.128C542.05 349.223 540.928 348.683 540.096 348.507L539.961 349.263L525.037 353.079L524.308 355.704C523.713 355.655 523.107 355.423 522.491 355.01L523.788 347.765L524.921 347.763C525.099 348.46 525.199 349.225 525.222 350.058L534.419 348.038L537.356 347.545L537.412 347.23L526.576 342.498L525.401 345.086L524.302 344.899L525.571 337.812C526.315 337.511 526.985 337.385 527.581 337.435C527.533 338.304 527.453 339.171 527.341 340.036C528.859 340.716 531.125 341.734 534.14 343.092C537.159 344.428 539.494 345.485 541.146 346.261C542.801 347.016 544.127 347.743 545.124 348.444C546.12 349.144 546.745 349.814 546.997 350.453C547.274 351.072 547.347 351.75 547.216 352.485C546.982 353.787 546.509 354.983 545.796 356.075L545.407 356.618C543.01 356.271 541.698 356.066 541.472 356.005C541.438 355.832 541.515 355.22 541.703 354.17L545.148 353.368C545.246 353.185 545.321 352.946 545.373 352.652Z" fill="#3A7146"/>
<path d="M545.373 352.652C545.516 351.854 544.879 351.013 543.463 350.128C542.05 349.223 540.928 348.683 540.096 348.507L539.961 349.263L525.037 353.079L524.308 355.704C523.713 355.655 523.107 355.423 522.491 355.01L523.788 347.765L524.921 347.763C525.099 348.46 525.199 349.225 525.222 350.058L534.419 348.038L537.356 347.545L537.412 347.23L526.576 342.498L525.401 345.086L524.302 344.899L525.571 337.812C526.315 337.511 526.985 337.385 527.581 337.435C527.533 338.304 527.453 339.171 527.341 340.036C528.859 340.716 531.125 341.734 534.14 343.092C537.159 344.428 539.494 345.485 541.146 346.261C542.801 347.016 544.127 347.743 545.124 348.444C546.12 349.144 546.745 349.814 546.997 350.453C547.274 351.072 547.347 351.75 547.216 352.485C546.982 353.787 546.509 354.983 545.796 356.075L545.407 356.618C543.01 356.271 541.698 356.066 541.472 356.005C541.438 355.832 541.515 355.22 541.703 354.17L545.148 353.368C545.246 353.185 545.321 352.946 545.373 352.652Z" fill="#3A7146"/>
<path d="M544.318 289.084L551.16 288.826L551.261 286.031C551.858 285.995 552.504 286.137 553.202 286.457L553.527 293.874L552.414 294.039C552.051 293.078 551.764 292.134 551.553 291.206C542.87 291.865 536.413 292.367 532.179 292.711C532.2 293.672 532.113 294.617 531.919 295.548L530.253 295.522C529.879 294.305 529.643 292.589 529.546 290.372C529.878 290.16 530.499 289.94 531.407 289.713C529.903 287.07 529.135 285.386 529.103 284.661C529.016 282.679 529.729 281.161 531.241 280.107C532.732 279.054 534.713 278.452 537.183 278.301C539.632 278.151 541.71 278.569 543.419 279.555C545.127 280.519 546.025 282.024 546.115 284.07C546.149 284.837 545.994 285.691 545.651 286.631C545.307 287.549 544.863 288.367 544.318 289.084ZM531.524 285.09C531.582 286.412 532.118 287.918 533.132 289.608C537.094 289.408 540.066 289.269 542.048 289.191C542.557 288.626 543.016 287.892 543.425 286.991C543.812 286.07 543.991 285.279 543.962 284.618C543.851 282.103 541.73 280.972 537.6 281.225C536.024 281.321 534.797 281.578 533.918 281.995C533.019 282.413 532.387 282.868 532.025 283.361C531.662 283.853 531.495 284.43 531.524 285.09Z" fill="#3A7146"/>
<path d="M544.318 289.084L551.16 288.826L551.261 286.031C551.858 285.995 552.504 286.137 553.202 286.457L553.527 293.874L552.414 294.039C552.051 293.078 551.764 292.134 551.553 291.206C542.87 291.865 536.413 292.367 532.179 292.711C532.2 293.672 532.113 294.617 531.919 295.548L530.253 295.522C529.879 294.305 529.643 292.589 529.546 290.372C529.878 290.16 530.499 289.94 531.407 289.713C529.903 287.07 529.135 285.386 529.103 284.661C529.016 282.679 529.729 281.161 531.241 280.107C532.732 279.054 534.713 278.452 537.183 278.301C539.632 278.151 541.71 278.569 543.419 279.555C545.127 280.519 546.025 282.024 546.115 284.07C546.149 284.837 545.994 285.691 545.651 286.631C545.307 287.549 544.863 288.367 544.318 289.084ZM531.524 285.09C531.582 286.412 532.118 287.918 533.132 289.608C537.094 289.408 540.066 289.269 542.048 289.191C542.557 288.626 543.016 287.892 543.425 286.991C543.812 286.07 543.991 285.279 543.962 284.618C543.851 282.103 541.73 280.972 537.6 281.225C536.024 281.321 534.797 281.578 533.918 281.995C533.019 282.413 532.387 282.868 532.025 283.361C531.662 283.853 531.495 284.43 531.524 285.09Z" fill="#3A7146"/>
<path d="M544.318 289.084L551.16 288.826L551.261 286.031C551.858 285.995 552.504 286.137 553.202 286.457L553.527 293.874L552.414 294.039C552.051 293.078 551.764 292.134 551.553 291.206C542.87 291.865 536.413 292.367 532.179 292.711C532.2 293.672 532.113 294.617 531.919 295.548L530.253 295.522C529.879 294.305 529.643 292.589 529.546 290.372C529.878 290.16 530.499 289.94 531.407 289.713C529.903 287.07 529.135 285.386 529.103 284.661C529.016 282.679 529.729 281.161 531.241 280.107C532.732 279.054 534.713 278.452 537.183 278.301C539.632 278.151 541.71 278.569 543.419 279.555C545.127 280.519 546.025 282.024 546.115 284.07C546.149 284.837 545.994 285.691 545.651 286.631C545.307 287.549 544.863 288.367 544.318 289.084ZM531.524 285.09C531.582 286.412 532.118 287.918 533.132 289.608C537.094 289.408 540.066 289.269 542.048 289.191C542.557 288.626 543.016 287.892 543.425 286.991C543.812 286.07 543.991 285.279 543.962 284.618C543.851 282.103 541.73 280.972 537.6 281.225C536.024 281.321 534.797 281.578 533.918 281.995C533.019 282.413 532.387 282.868 532.025 283.361C531.662 283.853 531.495 284.43 531.524 285.09Z" fill="#3A7146"/>
<path d="M519.582 253.503C519.458 252.853 519.39 252.389 519.38 252.11C519.76 252.051 520.267 252.037 520.902 252.068C521.513 252.081 521.875 252.1 521.988 252.125C522.452 252.053 523.415 251.925 524.878 251.741C526.34 251.556 527.472 251.402 528.273 251.277C527.615 250.452 527.023 249.627 526.495 248.803C525.964 247.957 525.676 247.42 525.632 247.189C525.246 245.178 525.472 243.643 526.311 242.585C527.129 241.53 528.56 240.843 530.605 240.525C531.195 240.433 533.951 240.091 538.874 239.498L538.62 236.819C539.21 236.727 539.877 236.807 540.62 237.058L542.008 244.286L540.919 244.552C540.397 243.641 539.963 242.738 539.617 241.842C534.118 242.827 531.074 243.419 530.482 243.619C529.866 243.801 529.346 244.033 528.923 244.315C528.499 244.596 528.233 244.961 528.123 245.41C528.014 245.859 528.026 246.428 528.159 247.12C528.432 248.544 529.031 249.854 529.955 251.048L540.805 249.554L540.551 246.875C541.141 246.783 541.808 246.863 542.551 247.114L543.939 254.342L542.85 254.609C542.328 253.697 541.894 252.794 541.548 251.898L522.491 255.251C522.649 256.413 522.699 257.355 522.642 258.076L520.974 258.206C520.453 257.186 519.989 255.619 519.582 253.503Z" fill="#3A7146"/>
<path d="M519.582 253.503C519.458 252.853 519.39 252.389 519.38 252.11C519.76 252.051 520.267 252.037 520.902 252.068C521.513 252.081 521.875 252.1 521.988 252.125C522.452 252.053 523.415 251.925 524.878 251.741C526.34 251.556 527.472 251.402 528.273 251.277C527.615 250.452 527.023 249.627 526.495 248.803C525.964 247.957 525.676 247.42 525.632 247.189C525.246 245.178 525.472 243.643 526.311 242.585C527.129 241.53 528.56 240.843 530.605 240.525C531.195 240.433 533.951 240.091 538.874 239.498L538.62 236.819C539.21 236.727 539.877 236.807 540.62 237.058L542.008 244.286L540.919 244.552C540.397 243.641 539.963 242.738 539.617 241.842C534.118 242.827 531.074 243.419 530.482 243.619C529.866 243.801 529.346 244.033 528.923 244.315C528.499 244.596 528.233 244.961 528.123 245.41C528.014 245.859 528.026 246.428 528.159 247.12C528.432 248.544 529.031 249.854 529.955 251.048L540.805 249.554L540.551 246.875C541.141 246.783 541.808 246.863 542.551 247.114L543.939 254.342L542.85 254.609C542.328 253.697 541.894 252.794 541.548 251.898L522.491 255.251C522.649 256.413 522.699 257.355 522.642 258.076L520.974 258.206C520.453 257.186 519.989 255.619 519.582 253.503Z" fill="#3A7146"/>
<path d="M519.582 253.503C519.458 252.853 519.39 252.389 519.38 252.11C519.76 252.051 520.267 252.037 520.902 252.068C521.513 252.081 521.875 252.1 521.988 252.125C522.452 252.053 523.415 251.925 524.878 251.741C526.34 251.556 527.472 251.402 528.273 251.277C527.615 250.452 527.023 249.627 526.495 248.803C525.964 247.957 525.676 247.42 525.632 247.189C525.246 245.178 525.472 243.643 526.311 242.585C527.129 241.53 528.56 240.843 530.605 240.525C531.195 240.433 533.951 240.091 538.874 239.498L538.62 236.819C539.21 236.727 539.877 236.807 540.62 237.058L542.008 244.286L540.919 244.552C540.397 243.641 539.963 242.738 539.617 241.842C534.118 242.827 531.074 243.419 530.482 243.619C529.866 243.801 529.346 244.033 528.923 244.315C528.499 244.596 528.233 244.961 528.123 245.41C528.014 245.859 528.026 246.428 528.159 247.12C528.432 248.544 529.031 249.854 529.955 251.048L540.805 249.554L540.551 246.875C541.141 246.783 541.808 246.863 542.551 247.114L543.939 254.342L542.85 254.609C542.328 253.697 541.894 252.794 541.548 251.898L522.491 255.251C522.649 256.413 522.699 257.355 522.642 258.076L520.974 258.206C520.453 257.186 519.989 255.619 519.582 253.503Z" fill="#3A7146"/>
<path d="M531.633 206.728C531.05 205.033 530.12 204.029 528.843 203.714C527.539 203.385 525.883 203.472 523.876 203.977C520.69 204.777 518.929 205.965 518.594 207.54C518.457 208.188 518.566 209.027 518.919 210.055C519.266 211.064 519.813 211.968 520.559 212.766C522.43 213.173 524.42 213.111 526.531 212.58C528.558 212.071 530.03 211.416 530.946 210.616C531.98 209.698 532.209 208.403 531.633 206.728ZM527.767 215.294C525.14 215.955 522.89 215.885 521.019 215.084C519.127 214.288 517.761 212.67 516.922 210.229C516.083 207.788 516.159 205.851 517.15 204.418C518.12 202.991 519.929 201.944 522.578 201.278C525.226 200.613 527.506 200.675 529.419 201.465C531.325 202.236 532.683 203.801 533.495 206.161C534.306 208.522 534.213 210.474 533.216 212.018C532.211 213.542 530.395 214.634 527.767 215.294Z" fill="#3A7146"/>
<path d="M531.633 206.728C531.05 205.033 530.12 204.029 528.843 203.714C527.539 203.385 525.883 203.472 523.876 203.977C520.69 204.777 518.929 205.965 518.594 207.54C518.457 208.188 518.566 209.027 518.919 210.055C519.266 211.064 519.813 211.968 520.559 212.766C522.43 213.173 524.42 213.111 526.531 212.58C528.558 212.071 530.03 211.416 530.946 210.616C531.98 209.698 532.209 208.403 531.633 206.728ZM527.767 215.294C525.14 215.955 522.89 215.885 521.019 215.084C519.127 214.288 517.761 212.67 516.922 210.229C516.083 207.788 516.159 205.851 517.15 204.418C518.12 202.991 519.929 201.944 522.578 201.278C525.226 200.613 527.506 200.675 529.419 201.465C531.325 202.236 532.683 203.801 533.495 206.161C534.306 208.522 534.213 210.474 533.216 212.018C532.211 213.542 530.395 214.634 527.767 215.294Z" fill="#3A7146"/>
<path d="M531.633 206.728C531.05 205.033 530.12 204.029 528.843 203.714C527.539 203.385 525.883 203.472 523.876 203.977C520.69 204.777 518.929 205.965 518.594 207.54C518.457 208.188 518.566 209.027 518.919 210.055C519.266 211.064 519.813 211.968 520.559 212.766C522.43 213.173 524.42 213.111 526.531 212.58C528.558 212.071 530.03 211.416 530.946 210.616C531.98 209.698 532.209 208.403 531.633 206.728ZM527.767 215.294C525.14 215.955 522.89 215.885 521.019 215.084C519.127 214.288 517.761 212.67 516.922 210.229C516.083 207.788 516.159 205.851 517.15 204.418C518.12 202.991 519.929 201.944 522.578 201.278C525.226 200.613 527.506 200.675 529.419 201.465C531.325 202.236 532.683 203.801 533.495 206.161C534.306 208.522 534.213 210.474 533.216 212.018C532.211 213.542 530.395 214.634 527.767 215.294Z" fill="#3A7146"/>
<path d="M519.392 175.103L508.066 179.174L509.131 181.396L508.11 181.84C507.877 181.695 507.347 181.225 506.52 180.43L501.504 179.368C501.36 178.969 501.318 178.637 501.379 178.371L504.73 177.279C504.039 175.836 503.573 174.619 503.333 173.628C503.879 173.444 504.554 173.407 505.358 173.517L506.85 176.634C509.296 175.858 512.995 174.66 517.948 173.042C517.492 171.944 517.179 170.799 517.007 169.606L518.082 169.278C518.393 169.486 518.937 170.108 519.714 171.142C520.482 172.157 521.036 173.021 521.377 173.733C521.262 173.883 520.978 174.124 520.526 174.454C520.053 174.792 519.676 175.008 519.392 175.103Z" fill="#3A7146"/>
<path d="M519.392 175.103L508.066 179.174L509.131 181.396L508.11 181.84C507.877 181.695 507.347 181.225 506.52 180.43L501.504 179.368C501.36 178.969 501.318 178.637 501.379 178.371L504.73 177.279C504.039 175.836 503.573 174.619 503.333 173.628C503.879 173.444 504.554 173.407 505.358 173.517L506.85 176.634C509.296 175.858 512.995 174.66 517.948 173.042C517.492 171.944 517.179 170.799 517.007 169.606L518.082 169.278C518.393 169.486 518.937 170.108 519.714 171.142C520.482 172.157 521.036 173.021 521.377 173.733C521.262 173.883 520.978 174.124 520.526 174.454C520.053 174.792 519.676 175.008 519.392 175.103Z" fill="#3A7146"/>
<path d="M519.392 175.103L508.066 179.174L509.131 181.396L508.11 181.84C507.877 181.695 507.347 181.225 506.52 180.43L501.504 179.368C501.36 178.969 501.318 178.637 501.379 178.371L504.73 177.279C504.039 175.836 503.573 174.619 503.333 173.628C503.879 173.444 504.554 173.407 505.358 173.517L506.85 176.634C509.296 175.858 512.995 174.66 517.948 173.042C517.492 171.944 517.179 170.799 517.007 169.606L518.082 169.278C518.393 169.486 518.937 170.108 519.714 171.142C520.482 172.157 521.036 173.021 521.377 173.733C521.262 173.883 520.978 174.124 520.526 174.454C520.053 174.792 519.676 175.008 519.392 175.103Z" fill="#3A7146"/>
<path d="M504.799 145.156C503.849 143.636 502.7 142.832 501.351 142.743C499.972 142.644 498.331 143 496.427 143.812C493.405 145.101 491.896 146.523 491.9 148.08C491.903 148.72 492.193 149.502 492.769 150.424C493.335 151.329 494.078 152.1 494.999 152.738C496.963 152.817 498.945 152.43 500.947 151.576C502.87 150.756 504.204 149.889 504.95 148.975C505.788 147.93 505.738 146.657 504.799 145.156ZM502.772 153.959C500.28 155.022 498.01 155.326 495.96 154.871C493.891 154.425 492.173 153.107 490.804 150.919C489.436 148.73 489.094 146.871 489.778 145.342C490.443 143.821 492.031 142.525 494.543 141.454C497.054 140.382 499.354 140.066 501.443 140.504C503.52 140.924 505.22 142.192 506.544 144.308C507.867 146.425 508.195 148.301 507.528 149.938C506.85 151.556 505.264 152.896 502.772 153.959Z" fill="#3A7146"/>
<path d="M504.799 145.156C503.849 143.636 502.7 142.832 501.351 142.743C499.972 142.644 498.331 143 496.427 143.812C493.405 145.101 491.896 146.523 491.9 148.08C491.903 148.72 492.193 149.502 492.769 150.424C493.335 151.329 494.078 152.1 494.999 152.738C496.963 152.817 498.945 152.43 500.947 151.576C502.87 150.756 504.204 149.889 504.95 148.975C505.788 147.93 505.738 146.657 504.799 145.156ZM502.772 153.959C500.28 155.022 498.01 155.326 495.96 154.871C493.891 154.425 492.173 153.107 490.804 150.919C489.436 148.73 489.094 146.871 489.778 145.342C490.443 143.821 492.031 142.525 494.543 141.454C497.054 140.382 499.354 140.066 501.443 140.504C503.52 140.924 505.22 142.192 506.544 144.308C507.867 146.425 508.195 148.301 507.528 149.938C506.85 151.556 505.264 152.896 502.772 153.959Z" fill="#3A7146"/>
<path d="M504.799 145.156C503.849 143.636 502.7 142.832 501.351 142.743C499.972 142.644 498.331 143 496.427 143.812C493.405 145.101 491.896 146.523 491.9 148.08C491.903 148.72 492.193 149.502 492.769 150.424C493.335 151.329 494.078 152.1 494.999 152.738C496.963 152.817 498.945 152.43 500.947 151.576C502.87 150.756 504.204 149.889 504.95 148.975C505.788 147.93 505.738 146.657 504.799 145.156ZM502.772 153.959C500.28 155.022 498.01 155.326 495.96 154.871C493.891 154.425 492.173 153.107 490.804 150.919C489.436 148.73 489.094 146.871 489.778 145.342C490.443 143.821 492.031 142.525 494.543 141.454C497.054 140.382 499.354 140.066 501.443 140.504C503.52 140.924 505.22 142.192 506.544 144.308C507.867 146.425 508.195 148.301 507.528 149.938C506.85 151.556 505.264 152.896 502.772 153.959Z" fill="#3A7146"/>
</svg>
